<?xml version="1.0" encoding="utf-8"?>
<!-- Generator: Adobe Illustrator 16.0.0, SVG Export Plug-In . SVG Version: 6.00 Build 0)  -->
<!DOCTYPE svg PUBLIC "-//W3C//DTD SVG 1.1//EN" "http://www.w3.org/Graphics/SVG/1.1/DTD/svg11.dtd">
<svg version="1.1" id="Layer_1" xmlns="http://www.w3.org/2000/svg" xmlns:xlink="http://www.w3.org/1999/xlink" x="0px" y="0px"
	 width="106px" height="133.333px" viewBox="0 0 106 133.333" enable-background="new 0 0 106 133.333" xml:space="preserve">
<g>
	<g>
		<path fill="#FAD63F" d="M98.852,2.417H8.15c-2.963,0-5.362,2.401-5.362,5.362v50.891v39.815c0,1.418,0.559,2.692,1.456,3.653
			l0.253,0.254l45.213,27.267c2.544,1.386,4.972,1.574,7.58,0l45.216-27.267l0.253-0.254c0.896-0.961,1.456-2.235,1.456-3.652
			V58.669V7.779C104.214,4.818,101.815,2.417,98.852,2.417z"/>
		<path fill="#3C3C3B" d="M53.596,132.535c-1.546,0-3.092-0.434-4.73-1.325L3.245,103.64l-0.25-0.253
			c-1.287-1.374-1.974-3.101-1.974-4.902V7.779c0-3.932,3.199-7.129,7.129-7.129h90.702c3.93,0,7.129,3.197,7.129,7.129v90.707
			c0,1.802-0.687,3.527-1.933,4.857l-0.629,0.56l-45.216,27.27C56.702,132.078,55.153,132.535,53.596,132.535z M5.588,100.989
			l45.035,27.156c2.055,1.118,3.822,1.167,5.755,0l45.131-27.256c0.588-0.634,0.938-1.502,0.938-2.403V7.779
			c0-1.982-1.613-3.595-3.595-3.595L8.15,4.183c-1.982,0-3.595,1.613-3.595,3.596v90.706c0,0.902,0.347,1.771,0.978,2.448
			L5.588,100.989z"/>
	</g>
	<rect x="18.695" y="68.506" fill="#3C3C3B" width="71.848" height="23.729"/>
	<g>
		<g>
			<path fill="#3C3C3B" d="M32.385,103.583l-0.85-3.198h-0.017l-0.812,3.198h-1.354l-1.511-4.766h1.383l0.873,3.235h0.021
				l0.792-3.235h1.272l0.812,3.226h0.017l0.876-3.226h1.345l-1.502,4.766H32.385z"/>
			<path fill="#3C3C3B" d="M40.844,103.583l-0.847-3.198h-0.018l-0.812,3.198h-1.356L36.3,98.817h1.383l0.876,3.235h0.018
				l0.794-3.235h1.27l0.812,3.226h0.018l0.876-3.226h1.345l-1.502,4.766H40.844z"/>
			<path fill="#3C3C3B" d="M49.306,103.583l-0.847-3.198h-0.018l-0.812,3.198h-1.356l-1.511-4.766h1.383l0.876,3.235h0.018
				l0.795-3.235h1.269l0.812,3.226h0.018l0.876-3.226h1.345l-1.502,4.766H49.306z"/>
			<path fill="#3C3C3B" d="M54.602,102.164v1.419h-1.447v-1.419H54.602z"/>
			<path fill="#3C3C3B" d="M57.634,98.817v0.885h0.018c0.064-0.146,0.146-0.283,0.25-0.41c0.105-0.125,0.224-0.233,0.358-0.322
				c0.137-0.088,0.279-0.158,0.434-0.207c0.155-0.05,0.314-0.073,0.48-0.073c0.084,0,0.181,0.015,0.285,0.047v1.215
				c-0.061-0.013-0.134-0.021-0.221-0.032c-0.087-0.01-0.168-0.013-0.248-0.013c-0.241,0-0.442,0.039-0.608,0.119
				c-0.166,0.078-0.3,0.189-0.402,0.326c-0.102,0.14-0.175,0.3-0.218,0.484c-0.041,0.186-0.064,0.385-0.064,0.599v2.148h-1.307
				v-4.766H57.634z"/>
			<path fill="#3C3C3B" d="M61.911,102.397c0.059,0.103,0.134,0.186,0.227,0.251c0.09,0.063,0.198,0.11,0.317,0.143
				c0.12,0.029,0.245,0.045,0.373,0.045c0.093,0,0.189-0.01,0.291-0.032c0.102-0.021,0.192-0.055,0.276-0.101
				c0.082-0.046,0.151-0.107,0.207-0.186c0.055-0.076,0.084-0.172,0.084-0.29c0-0.196-0.131-0.344-0.393-0.442
				c-0.262-0.098-0.626-0.196-1.092-0.295c-0.192-0.043-0.378-0.094-0.559-0.152c-0.181-0.058-0.341-0.134-0.483-0.229
				c-0.143-0.097-0.256-0.215-0.341-0.359c-0.087-0.144-0.128-0.321-0.128-0.53c0-0.307,0.058-0.56,0.178-0.755
				c0.119-0.198,0.279-0.353,0.474-0.466c0.198-0.113,0.419-0.193,0.664-0.24c0.248-0.045,0.498-0.068,0.757-0.068
				c0.259,0,0.51,0.023,0.751,0.073c0.242,0.049,0.459,0.132,0.649,0.25c0.192,0.116,0.35,0.271,0.475,0.464
				c0.125,0.194,0.201,0.438,0.227,0.732H63.62c-0.018-0.25-0.114-0.422-0.286-0.511s-0.375-0.134-0.608-0.134
				c-0.073,0-0.154,0.004-0.239,0.013c-0.087,0.01-0.166,0.031-0.236,0.061c-0.07,0.031-0.13,0.076-0.18,0.135
				c-0.046,0.058-0.073,0.137-0.073,0.234c0,0.118,0.043,0.212,0.128,0.286c0.087,0.073,0.201,0.135,0.338,0.18
				c0.14,0.045,0.297,0.087,0.474,0.123c0.178,0.038,0.361,0.077,0.545,0.12c0.188,0.043,0.375,0.096,0.556,0.156
				c0.184,0.062,0.343,0.144,0.486,0.245c0.14,0.102,0.253,0.227,0.34,0.378c0.084,0.151,0.128,0.337,0.128,0.558
				c0,0.313-0.064,0.575-0.189,0.787c-0.125,0.213-0.291,0.384-0.492,0.513c-0.204,0.128-0.437,0.219-0.696,0.271
				c-0.262,0.053-0.527,0.079-0.797,0.079c-0.277,0-0.547-0.026-0.812-0.082c-0.262-0.055-0.498-0.148-0.704-0.276
				c-0.207-0.131-0.375-0.3-0.507-0.512c-0.13-0.213-0.203-0.478-0.215-0.798h1.243C61.823,102.176,61.853,102.295,61.911,102.397z"
				/>
			<path fill="#3C3C3B" d="M68.029,102.164v1.419h-1.447v-1.419H68.029z"/>
			<path fill="#3C3C3B" d="M71.13,97.001v2.479h0.026c0.166-0.276,0.378-0.478,0.638-0.603c0.256-0.127,0.509-0.189,0.754-0.189
				c0.352,0,0.637,0.047,0.861,0.143c0.225,0.097,0.402,0.227,0.53,0.396c0.131,0.168,0.221,0.375,0.274,0.616
				c0.052,0.243,0.079,0.513,0.079,0.807v2.932h-1.31v-2.691c0-0.394-0.061-0.686-0.184-0.881c-0.122-0.192-0.34-0.289-0.655-0.289
				c-0.355,0-0.614,0.105-0.774,0.318c-0.16,0.211-0.238,0.559-0.238,1.045v2.498h-1.31v-6.581H71.13z"/>
			<path fill="#3C3C3B" d="M79.248,103.583v-0.664h-0.026c-0.166,0.276-0.381,0.478-0.646,0.6c-0.265,0.122-0.532,0.184-0.809,0.184
				c-0.352,0-0.638-0.047-0.861-0.137c-0.225-0.094-0.402-0.225-0.53-0.394c-0.131-0.169-0.221-0.373-0.274-0.617
				c-0.052-0.241-0.078-0.512-0.078-0.806v-2.932h1.31v2.692c0,0.394,0.061,0.686,0.183,0.879c0.122,0.194,0.341,0.292,0.655,0.292
				c0.355,0,0.614-0.108,0.774-0.319c0.16-0.211,0.239-0.56,0.239-1.047v-2.497h1.31v4.766H79.248z"/>
		</g>
	</g>
	<g>
		<path fill="#FFFFFF" d="M27.308,75.8h5.54c2.664,0,3.231,1.502,3.231,2.535c0,1.021-0.495,1.573-1.246,1.983
			c0.905,0.312,1.755,1.035,1.755,2.522c0,2.026-1.755,3.074-3.543,3.074h-5.737V75.8z M30.426,79.739h1.645
			c0.649,0,1.063-0.186,1.063-0.837c0-0.51-0.425-0.694-1.063-0.694h-1.645V79.739z M30.426,83.507h1.828
			c0.652,0,1.217-0.184,1.217-0.964c0-0.596-0.352-0.922-1.089-0.922h-1.956V83.507z"/>
		<path fill="#FFFFFF" d="M47.926,82.005c0,2.806-1.517,4.15-4.605,4.15s-4.62-1.345-4.62-4.15V75.8h3.118v5.511
			c0,1.034,0,2.324,1.517,2.324c1.473,0,1.473-1.29,1.473-2.324V75.8h3.117V82.005z M43.787,75.091H41.86l1.403-2.11h2.963
			L43.787,75.091z"/>
		<path fill="#FFFFFF" d="M52.663,78.392h-2.835V75.8h8.786v2.592h-2.836v7.523h-3.114V78.392z"/>
		<path fill="#FFFFFF" d="M65.313,75.558c3.077,0,5.129,2.212,5.129,5.3c0,3.089-2.052,5.298-5.129,5.298
			c-3.074,0-5.129-2.209-5.129-5.298C60.185,77.77,62.239,75.558,65.313,75.558z M65.313,83.635c0.795,0,2.014-0.524,2.014-2.777
			s-1.219-2.777-2.014-2.777c-0.792,0-2.011,0.524-2.011,2.777S64.521,83.635,65.313,83.635z"/>
		<path fill="#FFFFFF" d="M72.713,75.8h5.936c1.77,0,3.301,0.977,3.301,2.889c0,1.05-0.48,2.154-1.517,2.537
			c0.85,0.326,1.374,1.261,1.488,2.522c0.044,0.495,0.059,1.7,0.34,2.167h-3.117c-0.155-0.51-0.212-1.034-0.253-1.559
			c-0.084-0.964-0.171-1.97-1.403-1.97h-1.66v3.528h-3.114V75.8z M75.828,80.22h1.63c0.582,0,1.374-0.099,1.374-1.006
			c0-0.637-0.353-1.007-1.543-1.007h-1.461V80.22z"/>
	</g>
	<g>
		<g>
			<path fill="#3C3C3B" d="M90.527,49.682c0,6.917-4.634,10.377-13.906,10.377H63.085c0,0-1.452,0-1.452-1.454v-7.267
				c0,0,0-1.453,1.452-1.453H73.23c1.176,0,1.946-0.046,2.307-0.137c0.814-0.228,1.222-0.748,1.222-1.56
				c0-0.587-0.408-1.334-1.222-2.239l-1.017-1.152l-7.665-8.479c-2.082-2.306-3.505-4.238-4.273-5.801
				c-0.771-1.559-1.152-3.311-1.152-5.257c0-6.963,4.654-10.444,13.969-10.444h12.252c0,0,1.452,0,1.452,1.452v7.269
				c0,0,0,1.454-1.452,1.454h-9.196c-2.444,0-3.665,0.52-3.665,1.561c0,0.587,0.52,1.492,1.561,2.712l0.815,0.95l8.276,9.089
				C88.833,43.011,90.527,46.471,90.527,49.682"/>
		</g>
		<path fill="#3C3C3B" d="M32.145,37.865c0,0-1.26,0.857-0.602,2.152l6.063,11.031c1.128,1.936,2.872,4.905,4.601,8.056
			c0,0,0.528,1.035,1.979,1.037h12.306h0.268c0,0,1.397-0.038,0.518-1.194c-4.18-5.491-8.318-11.938-11.497-16.924
			c0,0-0.661-1.297,0.556-2.096c2.223-1.461,4.694-3.687,6.213-5.882c1.514-2.194,2.273-4.69,2.273-7.494
			c0-4.116-1.301-7.1-3.9-8.956c-2.601-1.854-6.774-2.779-12.516-2.779H20.165c0,0-1.456,0-1.456,1.452v5.769v2.954v33.614
			c0,0,0,1.454,1.456,1.454h8.99c0,0,1.453,0,1.453-1.454V24.991h6.242c3.071,0,4.61,0.974,4.61,2.916
			c0,1.356-0.724,2.781-2.17,4.274C37.84,33.673,35.062,35.843,32.145,37.865"/>
	</g>
</g>
</svg>
