<svg version="1.0" xmlns="http://www.w3.org/2000/svg" xmlns:xlink="http://www.w3.org/1999/xlink"
	 viewBox="0 0 100 100">
	 <path id="XMLID_3_" d="M19.5617,0h8.6957v4.3475h43.478V0h8.6964v4.3475h13.0433h4.3482v4.3482v86.9574V100h-4.3482H6.5185H2.1702
 		v-4.3468V8.6957V4.3475h4.3482h13.0433V0z M10.866,13.0433v8.6957h78.261v-8.6957h-8.6951v4.3482h-8.6964v-4.3482h-43.478v4.3482
 		h-8.6957v-4.3482H10.866z M10.866,30.4348v60.8702h78.261V30.4348H10.866z M19.5617,56.522h8.6957v8.6951h-8.6957V56.522z
 		 M19.5617,73.9135h8.6957v8.6951h-8.6957V73.9135z M36.9532,39.1305h8.6957v8.6957h-8.6957V39.1305z M36.9532,56.522h8.6957v8.6951
 		h-8.6957V56.522z M36.9532,73.9135h8.6957v8.6951h-8.6957V73.9135z M54.3454,39.1305h8.6951v8.6957h-8.6951V39.1305z
 		 M54.3454,56.522h8.6951v8.6951h-8.6951V56.522z M54.3454,73.9135h8.6951v8.6951h-8.6951V73.9135z M71.7355,39.1305h8.6964v8.6957
 		h-8.6964V39.1305z M71.7355,56.522h8.6964v8.6951h-8.6964V56.522z"/>
</svg>
