<svg version="1.0" xmlns="http://www.w3.org/2000/svg" xmlns:xlink="http://www.w3.org/1999/xlink"
	 viewBox="0 0 100 100">
	 <g id="XMLID_2_">
 	<path id="XMLID_3_" d="M2.474,44.1406c1.6493-1.6493,3.6024-2.474,5.8594-2.474s4.2101,0.8246,5.8594,2.474
 		s2.474,3.6024,2.474,5.8594s-0.8247,4.2101-2.474,5.8594s-3.6024,2.474-5.8594,2.474s-4.2101-0.8246-5.8594-2.474S0,52.2569,0,50
 		S0.8247,45.7899,2.474,44.1406z M44.1406,44.1406c1.6493-1.6493,3.6024-2.474,5.8594-2.474s4.2101,0.8246,5.8594,2.474
 		s2.474,3.6024,2.474,5.8594s-0.8246,4.2101-2.474,5.8594s-3.6024,2.474-5.8594,2.474s-4.2101-0.8246-5.8594-2.474
 		s-2.474-3.6024-2.474-5.8594S42.4913,45.7899,44.1406,44.1406z M85.8073,44.1406c1.6493-1.6493,3.6024-2.474,5.8594-2.474
 		c2.257,0,4.2101,0.8246,5.8594,2.474C99.1753,45.7899,100,47.7431,100,50s-0.8247,4.2101-2.474,5.8594
 		c-1.6493,1.6493-3.6024,2.474-5.8594,2.474c-2.2569,0-4.2101-0.8246-5.8594-2.474c-1.6493-1.6493-2.474-3.6024-2.474-5.8594
 		S84.158,45.7899,85.8073,44.1406z"/>
 </g>
</svg>
