<?xml version="1.0" encoding="utf-8"?>
<!-- Generator: Adobe Illustrator 19.0.0, SVG Export Plug-In . SVG Version: 6.00 Build 0)  -->
<svg version="1.0" xmlns="http://www.w3.org/2000/svg" xmlns:xlink="http://www.w3.org/1999/xlink" x="0px" y="0px"
	 viewBox="0 0 100 100" enable-background="new 0 0 100 100" xml:space="preserve">
<g id="filter" display="none">
	<path display="inline" d="M0,65.139v6.088c0,0.794,0.382,1.5,1.071,2.117c0.688,0.584,1.559,0.909,2.534,0.909H46.89
		c0.976,0,1.846-0.325,2.534-0.909c0.688-0.617,1.071-1.323,1.071-2.117v-6.088c0-0.828-0.383-1.533-1.071-2.118
		c-0.688-0.617-1.559-0.909-2.534-0.909H3.605c-0.975,0-1.846,0.292-2.534,0.909C0.382,63.605,0,64.311,0,65.139z M0,46.933v6.097
		c0,0.795,0.382,1.533,1.071,2.118c0.688,0.617,1.559,0.909,2.534,0.909H75c0.975,0,1.768-0.292,2.534-0.909
		c0.687-0.585,1.071-1.323,1.071-2.118v-6.097c0-0.785-0.385-1.524-1.071-2.108c-0.767-0.632-1.56-0.91-2.534-0.91H3.605
		c-0.975,0-1.846,0.278-2.534,0.91C0.382,45.408,0,46.147,0,46.933z M0,28.749v6.059c0,0.829,0.382,1.559,1.071,2.143
		c0.688,0.595,1.559,0.909,2.534,0.909h92.79c0.976,0,1.846-0.315,2.534-0.909c0.688-0.584,1.071-1.313,1.071-2.143v-6.059
		c0-0.827-0.384-1.504-1.071-2.092c-0.689-0.643-1.559-0.91-2.534-0.91H3.605c-0.975,0-1.846,0.267-2.534,0.91
		C0.382,27.245,0,27.922,0,28.749z"/>
</g>
<g id="Layer_10" display="none">
	<g display="inline">
		<path d="M0,50c0-1.722,0.602-3.189,1.807-4.394l8.769-8.77c1.205-1.205,2.672-1.807,4.394-1.807c1.713,0,3.181,0.602,4.385,1.807
			l18.969,19.034l42.322-42.388c1.204-1.205,2.672-1.807,4.385-1.807c1.722,0,3.189,0.602,4.394,1.807l8.77,8.769
			c1.204,1.205,1.807,2.672,1.807,4.385c0,1.732-0.603,3.19-1.807,4.394L51.486,77.747l-8.778,8.77
			c-1.204,1.204-2.663,1.807-4.385,1.807c-1.722,0-3.189-0.602-4.385-1.807l-8.778-8.77L1.807,54.385C0.602,53.181,0,51.722,0,50z"
			/>
	</g>
</g>
<g id="Layer_11" display="none">
	<g display="inline">
		<path d="M6.708,75.102C2.236,67.439,0,59.074,0,50.002c0-9.072,2.236-17.437,6.708-25.098
			c4.467-7.662,10.534-13.725,18.196-18.196C32.562,2.236,40.931,0,50.002,0c9.068,0,17.437,2.236,25.093,6.708
			c7.663,4.472,13.729,10.534,18.201,18.196C97.765,32.566,100,40.931,100,50.002c0,9.072-2.235,17.437-6.703,25.099
			c-4.472,7.661-10.538,13.724-18.201,18.195C67.439,97.765,59.07,100,50.002,100c-9.072,0-17.441-2.235-25.098-6.703
			C17.242,88.825,11.175,82.763,6.708,75.102z M14.712,27.933c0.304,0.304,0.565,0.475,0.783,0.518
			c0.171,0.047,0.28,0.242,0.328,0.589c0.042,0.346,0.095,0.584,0.161,0.717c0.067,0.128,0.313,0.062,0.75-0.195
			c0.389,0.347,0.455,0.76,0.194,1.234c0.043-0.043,0.997,0.546,2.863,1.756c0.826,0.741,1.282,1.196,1.367,1.367
			c0.133,0.479-0.086,0.869-0.65,1.173c-0.043-0.085-0.237-0.28-0.584-0.584c-0.351-0.304-0.546-0.389-0.589-0.261
			c-0.128,0.218-0.119,0.617,0.033,1.205c0.152,0.584,0.38,0.855,0.684,0.812c-0.304,0-0.513,0.347-0.617,1.044
			c-0.109,0.693-0.167,1.462-0.167,2.307c0,0.85-0.019,1.358-0.061,1.533l0.128,0.062c-0.128,0.522-0.009,1.272,0.361,2.25
			c0.366,0.973,0.831,1.396,1.396,1.268c-0.565,0.128-0.128,1.063,1.305,2.801c0.261,0.347,0.432,0.541,0.518,0.584
			c0.133,0.09,0.394,0.251,0.783,0.489c0.389,0.237,0.717,0.456,0.978,0.65c0.261,0.195,0.475,0.422,0.65,0.684
			c0.171,0.218,0.389,0.708,0.65,1.466c0.261,0.76,0.565,1.268,0.912,1.529c-0.086,0.262,0.119,0.693,0.617,1.301
			c0.499,0.607,0.726,1.105,0.684,1.5c-0.042,0-0.095,0.02-0.161,0.062c-0.066,0.048-0.119,0.067-0.162,0.067
			c0.128,0.303,0.465,0.607,1.006,0.91c0.542,0.305,0.878,0.59,1.011,0.846c0.043,0.133,0.085,0.352,0.128,0.655
			c0.043,0.304,0.109,0.541,0.194,0.712c0.09,0.176,0.261,0.219,0.523,0.133c0.086-0.869-0.432-2.212-1.562-4.035
			c-0.65-1.087-1.021-1.714-1.106-1.889c-0.133-0.219-0.251-0.557-0.361-1.012c-0.109-0.456-0.204-0.769-0.29-0.945
			c0.085,0,0.213,0.033,0.389,0.1c0.171,0.066,0.356,0.143,0.556,0.229c0.194,0.086,0.356,0.176,0.484,0.262
			c0.133,0.085,0.176,0.151,0.133,0.193c-0.133,0.305-0.09,0.684,0.128,1.141c0.218,0.455,0.479,0.858,0.783,1.205
			c0.304,0.347,0.669,0.76,1.106,1.234c0.432,0.479,0.693,0.76,0.783,0.85c0.256,0.256,0.56,0.684,0.911,1.268
			c0.347,0.584,0.347,0.879,0,0.879c0.39,0,0.821,0.218,1.301,0.65c0.475,0.435,0.845,0.868,1.106,1.305
			c0.218,0.347,0.389,0.911,0.522,1.69c0.128,0.783,0.237,1.301,0.323,1.562c0.085,0.304,0.271,0.599,0.556,0.878
			c0.28,0.285,0.551,0.489,0.812,0.622c0.261,0.128,0.608,0.304,1.044,0.518c0.432,0.219,0.717,0.37,0.845,0.456
			c0.218,0.09,0.617,0.317,1.205,0.684c0.584,0.37,1.049,0.621,1.4,0.75c0.432,0.176,0.779,0.261,1.04,0.261
			c0.261,0,0.575-0.052,0.945-0.161c0.366-0.109,0.66-0.186,0.878-0.229c0.65-0.085,1.282,0.238,1.889,0.974
			c0.608,0.74,1.063,1.196,1.367,1.367c1.562,0.826,2.753,1.068,3.58,0.717c-0.086,0.048-0.076,0.209,0.033,0.489
			c0.109,0.284,0.28,0.617,0.521,1.011c0.238,0.39,0.433,0.703,0.584,0.945c0.152,0.237,0.271,0.422,0.356,0.55
			c0.219,0.262,0.608,0.589,1.173,0.979c0.564,0.389,0.954,0.717,1.172,0.978c0.262-0.176,0.414-0.37,0.457-0.589
			c-0.129,0.347,0.024,0.784,0.455,1.301c0.432,0.522,0.826,0.741,1.172,0.655c0.608-0.133,0.912-0.826,0.912-2.084
			c-1.348,0.65-2.406,0.262-3.189-1.173c0-0.042-0.058-0.161-0.162-0.36c-0.109-0.194-0.195-0.375-0.262-0.551
			c-0.066-0.176-0.118-0.36-0.16-0.556c-0.048-0.194-0.048-0.355,0-0.488c0.042-0.129,0.146-0.195,0.322-0.195
			c0.389,0,0.607-0.075,0.65-0.227c0.043-0.151,0-0.423-0.129-0.812c-0.133-0.39-0.218-0.674-0.26-0.845
			c-0.043-0.347-0.285-0.784-0.717-1.306c-0.433-0.518-0.693-0.846-0.779-0.974c-0.219,0.39-0.564,0.565-1.045,0.518
			c-0.479-0.043-0.825-0.237-1.039-0.584c0,0.043-0.033,0.161-0.1,0.357c-0.066,0.194-0.096,0.337-0.096,0.422
			c-0.564,0-0.892-0.019-0.977-0.062c0.042-0.133,0.095-0.513,0.161-1.14c0.066-0.631,0.143-1.12,0.228-1.467
			c0.042-0.171,0.161-0.432,0.361-0.778c0.193-0.347,0.355-0.664,0.483-0.944c0.134-0.285,0.219-0.556,0.261-0.816
			c0.043-0.262-0.052-0.466-0.289-0.617c-0.242-0.152-0.622-0.204-1.139-0.162c-0.826,0.043-1.391,0.476-1.695,1.301
			c-0.043,0.129-0.109,0.356-0.195,0.684c-0.09,0.328-0.194,0.575-0.328,0.75c-0.128,0.171-0.323,0.323-0.583,0.456
			c-0.304,0.128-0.826,0.171-1.562,0.128c-0.741-0.042-1.263-0.151-1.562-0.322c-0.565-0.347-1.054-0.979-1.467-1.89
			c-0.413-0.911-0.617-1.714-0.617-2.411c0-0.433,0.052-1.007,0.162-1.724c0.109-0.717,0.171-1.258,0.194-1.629
			c0.024-0.365-0.095-0.896-0.356-1.594c0.128-0.086,0.323-0.295,0.584-0.617c0.261-0.328,0.479-0.557,0.65-0.684
			c0.085-0.043,0.185-0.076,0.294-0.1c0.109-0.02,0.204-0.02,0.294,0c0.085,0.024,0.171-0.01,0.261-0.096
			c0.085-0.086,0.147-0.219,0.195-0.395c-0.047-0.042-0.133-0.104-0.261-0.193c-0.133-0.129-0.218-0.195-0.261-0.195
			c0.304,0.133,0.921,0.1,1.856-0.095c0.93-0.2,1.528-0.167,1.79,0.095c0.65,0.479,1.13,0.437,1.433-0.129
			c0-0.042-0.057-0.251-0.166-0.621c-0.109-0.365-0.119-0.66-0.028-0.879c0.213,1.174,0.845,1.367,1.884,0.59
			c0.134,0.127,0.466,0.236,1.011,0.322c0.542,0.09,0.922,0.194,1.141,0.328c0.127,0.085,0.279,0.203,0.455,0.355
			c0.171,0.152,0.295,0.252,0.355,0.295c0.066,0.042,0.176,0.033,0.328-0.033c0.152-0.067,0.337-0.205,0.551-0.424
			c0.437,0.608,0.697,1.131,0.783,1.562c0.475,1.737,0.888,2.691,1.238,2.867c0.3,0.129,0.542,0.171,0.713,0.129
			c0.176-0.043,0.271-0.248,0.295-0.617c0.023-0.371,0.023-0.675,0-0.912c-0.024-0.237-0.053-0.513-0.096-0.816l-0.066-0.518
			c0-0.395,0-0.783,0-1.172l-0.066-0.523c-0.65-0.127-1.054-0.389-1.206-0.783c-0.151-0.389-0.118-0.787,0.101-1.201
			c0.218-0.412,0.541-0.816,0.977-1.205c0.043-0.043,0.215-0.119,0.518-0.228c0.305-0.109,0.642-0.247,1.012-0.422
			c0.37-0.176,0.641-0.347,0.812-0.522c0.911-0.821,1.239-1.581,0.977-2.279c0.305,0,0.542-0.195,0.717-0.584
			c-0.042,0-0.151-0.066-0.327-0.195c-0.171-0.133-0.337-0.242-0.483-0.327c-0.157-0.085-0.252-0.128-0.295-0.128
			c0.389-0.218,0.432-0.565,0.129-1.044c0.218-0.128,0.379-0.366,0.488-0.717c0.109-0.347,0.271-0.56,0.488-0.65
			c0.391,0.522,0.846,0.565,1.367,0.133c0.305-0.346,0.328-0.698,0.066-1.044c0.215-0.304,0.66-0.531,1.334-0.684
			c0.67-0.152,1.074-0.356,1.207-0.617c0.299,0.085,0.475,0.042,0.518-0.133c0.042-0.171,0.066-0.432,0.066-0.778
			c0-0.347,0.066-0.608,0.193-0.783c0.176-0.214,0.499-0.408,0.979-0.584c0.475-0.176,0.76-0.28,0.846-0.328l1.105-0.717
			c0.133-0.171,0.133-0.256,0-0.256c0.783,0.085,1.453-0.152,2.018-0.717c0.437-0.479,0.304-0.912-0.389-1.306
			c0.133-0.256,0.066-0.465-0.195-0.617c-0.262-0.152-0.584-0.271-0.979-0.356c0.134-0.042,0.381-0.057,0.75-0.033
			c0.371,0.024,0.599-0.009,0.684-0.1c0.65-0.432,0.499-0.779-0.455-1.04c-0.74-0.218-1.671,0.043-2.801,0.778
			c-0.086,0.047-0.289,0.252-0.617,0.622c-0.328,0.37-0.617,0.574-0.879,0.617c0.086,0,0.186-0.109,0.295-0.328
			c0.104-0.214,0.214-0.456,0.322-0.712c0.109-0.261,0.186-0.413,0.229-0.456c0.262-0.304,0.736-0.631,1.434-0.978
			c0.607-0.261,1.732-0.522,3.385-0.783c1.477-0.347,2.582-0.104,3.318,0.717c-0.086-0.085,0.119-0.365,0.622-0.845
			c0.498-0.479,0.812-0.736,0.944-0.783c0.128-0.085,0.456-0.181,0.974-0.29c0.521-0.109,0.85-0.27,0.977-0.489l0.128-1.434
			c-0.517,0.042-0.897-0.109-1.139-0.455c-0.237-0.347-0.38-0.802-0.423-1.367c0,0.085-0.128,0.261-0.39,0.522
			c0-0.304-0.1-0.479-0.294-0.522c-0.194-0.043-0.446-0.019-0.745,0.066c-0.309,0.085-0.503,0.109-0.589,0.062
			c-0.432-0.128-0.76-0.289-0.979-0.484c-0.213-0.199-0.389-0.555-0.517-1.077c-0.134-0.518-0.219-0.845-0.261-0.974
			c-0.091-0.218-0.295-0.446-0.617-0.684c-0.328-0.242-0.537-0.47-0.623-0.684c-0.042-0.09-0.094-0.208-0.16-0.36
			c-0.066-0.152-0.129-0.294-0.195-0.423c-0.066-0.128-0.152-0.247-0.261-0.356c-0.109-0.109-0.228-0.166-0.356-0.166
			c-0.133,0-0.285,0.109-0.455,0.328c-0.176,0.218-0.338,0.432-0.489,0.65c-0.152,0.218-0.252,0.327-0.294,0.327
			c-0.129-0.09-0.262-0.119-0.39-0.1c-0.134,0.024-0.228,0.043-0.294,0.066c-0.066,0.019-0.162,0.085-0.295,0.195
			c-0.128,0.109-0.237,0.185-0.322,0.228c-0.133,0.086-0.318,0.152-0.557,0.194c-0.236,0.043-0.422,0.085-0.55,0.128
			c0.65-0.214,0.626-0.456-0.067-0.712c-0.436-0.175-0.783-0.242-1.043-0.199c0.394-0.171,0.555-0.432,0.488-0.778
			c-0.062-0.347-0.247-0.65-0.551-0.912h0.322c-0.042-0.176-0.227-0.361-0.55-0.556c-0.327-0.194-0.708-0.379-1.14-0.55
			c-0.437-0.176-0.717-0.304-0.85-0.394c-0.347-0.214-1.082-0.423-2.213-0.617c-1.129-0.195-1.846-0.204-2.145-0.033
			c-0.219,0.261-0.318,0.489-0.295,0.684c0.019,0.194,0.109,0.503,0.262,0.911c0.151,0.413,0.227,0.684,0.227,0.817
			c0.043,0.261-0.075,0.541-0.359,0.845c-0.281,0.304-0.424,0.565-0.424,0.783c0,0.304,0.305,0.641,0.912,1.007
			c0.607,0.37,0.826,0.835,0.65,1.4c-0.129,0.346-0.475,0.693-1.039,1.039c-0.565,0.351-0.912,0.612-1.045,0.783
			c-0.214,0.347-0.247,0.75-0.096,1.206c0.152,0.456,0.381,0.812,0.684,1.073c0.086,0.085,0.119,0.175,0.096,0.261
			c-0.02,0.085-0.096,0.186-0.229,0.294c-0.127,0.109-0.246,0.195-0.355,0.256c-0.109,0.066-0.252,0.143-0.422,0.228L58.4,30.862
			c-0.479,0.218-0.926,0.086-1.334-0.389c-0.413-0.479-0.707-1.045-0.883-1.695c-0.304-1.083-0.65-1.737-1.039-1.951
			c-0.998-0.347-1.629-0.328-1.891,0.062c-0.218-0.561-1.105-1.125-2.667-1.691c-1.087-0.394-2.345-0.479-3.774-0.261
			c0.256-0.043,0.256-0.371,0-0.978c-0.309-0.65-0.717-0.912-1.239-0.779c0.128-0.261,0.219-0.641,0.261-1.139
			c0.043-0.499,0.066-0.793,0.066-0.883c0.128-0.56,0.39-1.059,0.779-1.496c0.042-0.042,0.194-0.228,0.456-0.555
			c0.261-0.323,0.465-0.617,0.617-0.878c0.152-0.261,0.166-0.389,0.033-0.389c1.519,0.176,2.607-0.066,3.257-0.717
			c0.218-0.214,0.465-0.584,0.75-1.106c0.279-0.522,0.508-0.888,0.684-1.106c0.389-0.261,0.692-0.38,0.91-0.361
			c0.215,0.024,0.532,0.143,0.945,0.361c0.408,0.218,0.727,0.323,0.939,0.323c0.608,0.047,0.945-0.194,1.012-0.712
			c0.066-0.522-0.1-0.954-0.488-1.306c0.521,0.048,0.588-0.323,0.193-1.106c-0.218-0.304-0.389-0.499-0.518-0.584
			c-0.521-0.176-1.11-0.066-1.761,0.323c-0.347,0.176-0.304,0.352,0.134,0.523c-0.049-0.043-0.252,0.185-0.623,0.684
			c-0.365,0.499-0.726,0.878-1.072,1.139c-0.347,0.261-0.693,0.152-1.039-0.328c-0.049-0.043-0.167-0.332-0.361-0.878
			c-0.195-0.542-0.399-0.835-0.617-0.878c-0.347,0-0.693,0.328-1.04,0.978c0.128-0.347-0.109-0.674-0.717-0.978
			c-0.608-0.304-1.13-0.475-1.562-0.522c0.821-0.518,0.65-1.106-0.522-1.757c-0.304-0.171-0.75-0.28-1.334-0.323
			c-0.589-0.042-1.011,0.043-1.272,0.256c-0.218,0.309-0.337,0.556-0.356,0.75c-0.024,0.195,0.086,0.371,0.323,0.523
			c0.242,0.152,0.47,0.271,0.684,0.356c0.218,0.09,0.47,0.176,0.75,0.261c0.28,0.09,0.465,0.152,0.556,0.194
			c0.608,0.437,0.778,0.741,0.517,0.912c-0.085,0.047-0.271,0.124-0.551,0.228c-0.285,0.109-0.531,0.208-0.75,0.294
			c-0.218,0.086-0.346,0.176-0.389,0.261c-0.133,0.176-0.133,0.48,0,0.912c0.128,0.432,0.085,0.736-0.133,0.912
			c-0.214-0.219-0.413-0.599-0.584-1.14c-0.176-0.541-0.328-0.902-0.456-1.073c0.304,0.389-0.237,0.518-1.628,0.389l-0.65-0.066
			c-0.176,0-0.522,0.043-1.04,0.133c-0.522,0.085-0.968,0.109-1.339,0.062c-0.365-0.043-0.66-0.214-0.878-0.518
			c-0.171-0.347-0.171-0.783,0-1.306c0.042-0.171,0.133-0.213,0.261-0.128c-0.175-0.133-0.413-0.337-0.717-0.617
			c-0.304-0.285-0.518-0.47-0.65-0.556c-1.999,0.65-4.035,1.543-6.119,2.668c0.261,0.048,0.522,0.024,0.783-0.061
			c0.214-0.09,0.499-0.228,0.845-0.427c0.347-0.195,0.565-0.313,0.65-0.356c1.477-0.608,2.388-0.76,2.734-0.456l0.328-0.327
			c0.603,0.698,1.04,1.239,1.301,1.628c-0.304-0.171-0.954-0.194-1.956-0.061c-0.869,0.256-1.343,0.518-1.429,0.778
			c0.304,0.523,0.408,0.912,0.323,1.173c-0.171-0.128-0.422-0.347-0.746-0.65c-0.327-0.304-0.641-0.542-0.944-0.717
			c-0.304-0.171-0.631-0.28-0.978-0.328c-0.693,0-1.172,0.024-1.434,0.066C23.675,16.953,18.576,21.771,14.712,27.933z
			 M57.095,89.974c0,0.262,0.043,0.613,0.134,1.045c8.938-1.562,16.558-5.663,22.853-12.305c-0.133-0.133-0.403-0.228-0.816-0.295
			c-0.413-0.066-0.684-0.137-0.812-0.228c-0.784-0.304-1.306-0.475-1.562-0.522c0.043-0.299-0.014-0.584-0.166-0.845
			c-0.152-0.261-0.322-0.456-0.518-0.584c-0.199-0.133-0.47-0.304-0.816-0.522c-0.347-0.218-0.584-0.37-0.717-0.455
			c-0.086-0.086-0.237-0.219-0.455-0.39c-0.219-0.176-0.371-0.294-0.457-0.36c-0.085-0.062-0.246-0.162-0.488-0.29
			c-0.237-0.133-0.422-0.176-0.551-0.133c-0.133,0.043-0.347,0.067-0.65,0.067l-0.194,0.066c-0.134,0.043-0.252,0.095-0.36,0.161
			c-0.109,0.067-0.229,0.129-0.356,0.195c-0.134,0.066-0.219,0.128-0.261,0.194c-0.043,0.066-0.043,0.119,0,0.161
			c-0.912-0.735-1.695-1.21-2.346-1.429c-0.219-0.043-0.455-0.166-0.717-0.36c-0.262-0.195-0.488-0.347-0.684-0.456
			c-0.195-0.104-0.413-0.138-0.65-0.095c-0.237,0.043-0.488,0.194-0.75,0.456c-0.214,0.218-0.347,0.541-0.389,0.973
			c-0.043,0.437-0.086,0.717-0.129,0.85c-0.304-0.218-0.304-0.598,0-1.139c0.304-0.542,0.347-0.945,0.129-1.206
			c-0.129-0.262-0.356-0.356-0.684-0.295c-0.323,0.066-0.584,0.167-0.779,0.295c-0.199,0.128-0.446,0.313-0.75,0.556
			c-0.304,0.237-0.498,0.379-0.588,0.422c-0.086,0.043-0.271,0.161-0.551,0.356c-0.285,0.194-0.471,0.36-0.557,0.488
			c-0.127,0.176-0.261,0.438-0.389,0.784c-0.128,0.346-0.237,0.583-0.328,0.712c-0.085-0.171-0.336-0.313-0.744-0.423
			c-0.414-0.104-0.623-0.228-0.623-0.356c0.091,0.433,0.176,1.192,0.262,2.279c0.086,1.087,0.194,1.908,0.328,2.473
			c0.303,1.349,0.042,2.389-0.783,3.124c-1.174,1.087-1.8,1.956-1.885,2.606c-0.176,0.954,0.085,1.519,0.777,1.69
			c0,0.309-0.175,0.751-0.521,1.339C57.204,89.162,57.053,89.628,57.095,89.974z"/>
	</g>
</g>
<g id="Layer_12" display="none">
	<g display="inline">
		<path d="M6.703,75.105C2.231,67.434,0,59.074,0,50.002c0-9.072,2.231-17.437,6.703-25.098
			c4.472-7.662,10.539-13.724,18.201-18.196C32.565,2.236,40.93,0,49.998,0c9.077,0,17.436,2.236,25.108,6.708
			c7.652,4.472,13.71,10.534,18.191,18.196C97.759,32.565,100,40.93,100,50.002c0,9.072-2.241,17.432-6.703,25.104
			c-4.481,7.652-10.539,13.72-18.191,18.191C67.434,97.759,59.074,100,49.998,100c-9.067,0-17.432-2.241-25.094-6.703
			C17.242,88.825,11.175,82.758,6.703,75.105z M25.198,64.719c0,1.168,0.409,2.164,1.234,2.99l5.858,5.858
			c0.826,0.826,1.823,1.234,3,1.234c1.12,0,2.098-0.408,2.924-1.234l11.783-11.782l11.778,11.782
			c0.835,0.826,1.804,1.234,2.943,1.234c1.158,0,2.164-0.408,2.981-1.234l5.867-5.858c0.816-0.826,1.234-1.822,1.234-2.99
			c0-1.13-0.418-2.108-1.234-2.934L61.775,50.002L73.567,38.22c0.816-0.826,1.234-1.804,1.234-2.934
			c0-1.167-0.418-2.169-1.234-2.991L67.7,26.432c-0.817-0.821-1.823-1.234-2.981-1.234c-1.14,0-2.108,0.413-2.943,1.234
			L49.998,38.22L38.215,26.432c-0.826-0.821-1.804-1.234-2.924-1.234c-1.177,0-2.174,0.413-3,1.234l-5.858,5.863
			c-0.826,0.821-1.234,1.823-1.234,2.991c0,1.13,0.409,2.108,1.234,2.934l11.783,11.782L26.432,61.785
			C25.606,62.61,25.198,63.589,25.198,64.719z"/>
	</g>
</g>
<g id="Layer_39" display="none">
	<g display="inline">
		<path d="M6.703,75.105C2.231,67.434,0,59.074,0,50.002c0-9.072,2.231-17.437,6.703-25.098
			c4.472-7.662,10.539-13.724,18.201-18.196C32.565,2.236,40.93,0,49.998,0c9.077,0,17.436,2.236,25.108,6.708
			c7.652,4.472,13.71,10.534,18.191,18.196C97.759,32.565,100,40.93,100,50.002c0,9.072-2.241,17.432-6.703,25.104
			c-4.481,7.652-10.539,13.72-18.191,18.191C67.434,97.759,59.074,100,49.998,100c-9.067,0-17.432-2.241-25.094-6.703
			C17.242,88.825,11.175,82.758,6.703,75.105z"/>
	</g>
</g>
<g id="Layer_13" display="none">
	<g display="inline">
		<path d="M0,20.874c0-2.905,0.773-5.322,2.316-7.259c1.542-1.929,3.748-2.897,6.611-2.897h82.146c2.417,0,4.509,0.87,6.274,2.621
			c1.774,1.75,2.653,3.849,2.653,6.307c0,2.938-0.911,5.746-2.734,8.423c-1.823,2.678-4.094,4.964-6.804,6.869
			c-13.997,9.708-22.696,15.755-26.123,18.132c-0.374,0.26-1.155,0.83-2.368,1.7c-1.212,0.879-2.213,1.587-3.019,2.124
			c-0.798,0.537-1.763,1.14-2.897,1.815c-1.135,0.667-2.205,1.172-3.211,1.505c-1,0.334-1.932,0.505-2.787,0.505H50h-0.057
			c-0.854,0-1.786-0.171-2.787-0.505c-1.005-0.333-2.075-0.838-3.21-1.505c-1.135-0.676-2.104-1.278-2.901-1.815
			c-0.801-0.537-1.807-1.245-3.015-2.124c-1.209-0.87-1.998-1.441-2.372-1.7c-3.385-2.377-8.256-5.778-14.62-10.181
			c-6.36-4.411-10.172-7.063-11.438-7.951c-2.308-1.562-4.484-3.711-6.531-6.445C1.021,25.756,0,23.218,0,20.874z M0,80.354V36.051
			c1.636,1.823,3.516,3.442,5.636,4.851C19.104,50.057,28.349,56.47,33.37,60.156c2.12,1.562,3.841,2.783,5.164,3.654
			c1.318,0.879,3.076,1.766,5.273,2.677c2.193,0.912,4.24,1.367,6.136,1.367H50h0.057c1.896,0,3.943-0.455,6.136-1.367
			c2.197-0.911,3.955-1.798,5.273-2.677c1.326-0.871,3.043-2.092,5.167-3.654c6.315-4.573,15.585-10.995,27.783-19.254
			c2.124-1.449,3.988-3.068,5.583-4.851v44.303c0,2.458-0.879,4.558-2.62,6.308c-1.75,1.749-3.857,2.62-6.308,2.62H8.927
			c-2.454,0-4.557-0.871-6.302-2.62C0.875,84.912,0,82.812,0,80.354z"/>
	</g>
</g>
<g id="arrow" display="none">
	<g display="inline">
		<path d="M29.159,100c-0.877,0-1.637-0.321-2.31-0.994l-5.014-5.013c-0.657-0.657-1.008-1.447-1.008-2.295
			c0-0.877,0.351-1.637,1.008-2.309l39.389-39.403L21.836,10.611c-0.657-0.674-1.008-1.434-1.008-2.31
			c0-0.876,0.351-1.637,1.008-2.311l5.014-4.998C27.522,0.321,28.282,0,29.159,0c0.876,0,1.636,0.321,2.309,0.993l46.697,46.712
			c0.658,0.643,1.007,1.432,1.007,2.281c0,0.876-0.349,1.636-1.007,2.31l-46.697,46.71C30.795,99.679,30.035,100,29.159,100z"/>
	</g>
</g>
<g id="Layer_25" display="none">
	<g display="inline">
		<g>
			<g>
				<path fill="#F5FBFD" d="M89.532,39.594c-0.22,0-0.438-0.103-0.572-0.299c-0.222-0.315-0.146-0.749,0.172-0.969l4.968-3.47
					c0.315-0.221,0.749-0.145,0.969,0.172c0.22,0.315,0.146,0.747-0.172,0.97l-4.965,3.471
					C89.808,39.553,89.667,39.594,89.532,39.594z"/>
			</g>
		</g>
		<g>
			<path fill="#231F20" d="M38.602,99.734l-1.518,0.152C37.083,99.885,37.822,100.122,38.602,99.734z"/>
			<path fill="#231F20" d="M94.485,31.649c-0.003-0.78,0.078-2.788-0.512-3.815l0.01-0.007c0,0-0.618-1.166-2.492-2.16
				C81.074,20.118,46.782,1.864,45.456,1.223c-1.566-0.758-4.477-2.134-7.472-0.345C36.244,1.917,14.24,17.816,7.546,22.744
				c-2.164,1.594-1.78,2.898-1.78,2.898s0.379-0.989,1.432-0.581c0.44,0.173,38.122,20.319,48.782,26.02
				c0.678,0.365,0.5,0.391,1.042,0.887c0.307,0.282,0.595,0.66,0.773,0.909L39.641,65.152l0.162,32.66c0,0,0.126,1.229-1.16,1.903
				c-0.014,0.008-0.028,0.012-0.042,0.018l0.18-0.018c0,0,33.135-23.906,34.887-25.098c1.749-1.195,3.613-2.289,3.596-6.696
				c-0.002-0.484,0.034-3.085,0.087-6.528c6.49-4.434,12.467-8.539,13.783-9.518c1.996-1.489,3.43-3.009,3.421-5.885
				C94.55,44.927,94.505,36.11,94.485,31.649z"/>
		</g>
		<g>
			<g>
				<path fill="#FFFFFF" d="M65.006,28.001c-0.476,5.189-7.379,8.791-15.403,8.04c-8.029-0.742-14.144-5.559-13.66-10.748
					c0.48-5.187,7.378-8.783,15.411-8.04C59.374,17.999,65.494,22.811,65.006,28.001z"/>
			</g>
		</g>
		<g>
			<g>
				<path fill="#231F20" d="M59.085,27.515c-0.289,3.099-4.413,5.251-9.206,4.804c-4.797-0.444-8.452-3.318-8.16-6.419
					c0.285-3.102,4.408-5.254,9.203-4.806C55.721,21.54,59.37,24.417,59.085,27.515z"/>
			</g>
		</g>
		<g>
			<g>
				<path fill="#FFFFFF" d="M29.033,19.479c-0.326,0-0.655-0.155-0.855-0.45c-0.331-0.469-0.214-1.118,0.253-1.449l7.435-5.189
					c0.47-0.331,1.12-0.214,1.448,0.259c0.332,0.47,0.216,1.12-0.259,1.449l-7.423,5.189C29.449,19.416,29.24,19.479,29.033,19.479z
					"/>
			</g>
		</g>
		<g>
			<g>
				<path fill="#FFFFFF" d="M64.766,39.727c-0.326,0-0.65-0.153-0.856-0.443c-0.327-0.474-0.213-1.123,0.259-1.453l7.429-5.188
					c0.47-0.328,1.121-0.216,1.452,0.26c0.327,0.471,0.214,1.12-0.261,1.45l-7.426,5.19C65.183,39.664,64.972,39.727,64.766,39.727z
					"/>
			</g>
		</g>
		<g>
			<g>
				<path fill="#FFFFFF" d="M55.814,50.993C54.147,50.203,17.74,30.596,17.74,30.596l-0.317-0.172v0.003c0,0-7.633-4.324-8.844-4.97
					c-2.008-1.082-2.34-0.161-2.332,1.636c0,0.755,0.018,15.835,0.018,16.743c0.007,1.135,0.582,2.849,1.711,3.45
					c0.812,0.433,8.503,4.846,11.17,6.276c1.02,0.548,1.715,2.278,1.721,3.409c0.002,0.914,0.142,22.787,0.187,29.866
					c0.009,1.715,1.403,3.511,2.281,4.011c0.67,0.386,12.457,6.933,13.509,7.535c1.056,0.599,3.075-0.393,3.067-2.096
					c-0.006-1.708-0.146-27.72-0.156-28.037c-0.101-3.31,1.494-2.799,2.921-1.995c3.008,1.718,13.619,7.184,14.157,7.482
					c0.926,0.513,1.974,1.125,1.963-0.441c-0.008-0.809-0.07-16.407-0.025-17.517C58.824,54.448,57.486,51.781,55.814,50.993z"/>
				<path fill="#231F20" d="M37.567,100c-0.519,0-1.014-0.125-1.433-0.361c-0.556-0.318-4.047-2.263-7.343-4.096
					c-3.01-1.676-5.857-3.261-6.178-3.446c-1.246-0.709-2.99-2.934-3.001-5.253l-0.007-1.056c-0.05-7.975-0.177-27.94-0.18-28.812
					c-0.004-0.807-0.562-1.93-0.961-2.144c-1.691-0.908-5.375-2.998-8.064-4.523c-1.57-0.891-2.804-1.592-3.101-1.75
					c-1.801-0.959-2.467-3.345-2.476-4.714L4.805,27.093C4.8,26.02,4.896,24.92,5.623,24.19c0.817-0.819,1.999-0.887,3.64-0.003
					c1.208,0.645,8.559,4.809,8.871,4.986l0.286,0.151c12.585,6.779,36.719,19.754,38.011,20.365c2.19,1.032,3.86,4.208,3.781,6.148
					c-0.042,1.051,0.017,16.522,0.027,17.444c0.006,0.834-0.204,1.453-0.643,1.895c-0.36,0.365-0.852,0.564-1.383,0.564l0,0
					c-0.739,0-1.421-0.378-2.02-0.711c-0.195-0.107-0.992-0.521-2.15-1.124c-3.433-1.786-9.824-5.11-12.08-6.4
					c-0.329-0.183-0.554-0.285-0.705-0.341c-0.039,0.196-0.075,0.524-0.058,1.042c0.013,0.425,0.156,27.819,0.156,28.075
					c0.005,0.949-0.374,1.855-1.065,2.551C39.56,99.564,38.542,100,37.567,100z M7.698,26.625c-0.006,0.125-0.009,0.277-0.008,0.461
					l0.018,16.75c0.005,0.843,0.474,1.925,0.946,2.177c0.305,0.162,1.567,0.877,3.17,1.788c2.676,1.518,6.342,3.598,8.004,4.491
					c1.7,0.912,2.474,3.282,2.481,4.673c0.003,0.874,0.129,20.833,0.18,28.804l0.007,1.059c0.005,1.157,1.094,2.507,1.552,2.767
					c0.326,0.188,3.155,1.763,6.145,3.428c3.31,1.843,6.816,3.794,7.368,4.111l0.005-0.017c0.179,0,0.469-0.108,0.677-0.318
					c0.228-0.23,0.227-0.436,0.226-0.505c-0.006-1.736-0.144-27.422-0.156-28.008c-0.048-1.583,0.241-2.647,0.911-3.338
					c0.465-0.479,1.077-0.733,1.771-0.733c0.883,0,1.74,0.42,2.388,0.784c2.214,1.265,8.573,4.572,11.987,6.35
					c0.94,0.486,1.649,0.857,1.979,1.031c-0.016-3.483-0.062-15.615-0.02-16.659c0.03-0.741-0.981-2.883-2.132-3.425
					c-1.682-0.796-36.654-19.63-38.142-20.431l-0.32-0.174l0.009-0.017c-0.253-0.12-0.556-0.291-0.944-0.51
					c-2.084-1.178-6.965-3.936-7.901-4.436C7.826,26.689,7.759,26.654,7.698,26.625z"/>
			</g>
		</g>
	</g>
</g>
<g id="search" display="none">
	<g display="inline">
		<path d="M3.335,58.743C1.111,53.515,0,48.037,0,42.308S1.111,31.1,3.335,25.871s5.229-9.735,9.015-13.521
			c3.786-3.786,8.293-6.791,13.521-9.015S36.577,0,42.308,0c5.729,0,11.208,1.111,16.437,3.335
			c5.229,2.224,9.735,5.229,13.523,9.015c3.784,3.786,6.789,8.293,9.012,13.521c2.225,5.229,3.337,10.707,3.337,16.436
			c0,8.815-2.484,16.807-7.452,23.978l20.612,20.613c1.482,1.48,2.225,3.284,2.225,5.408c0,2.083-0.762,3.887-2.284,5.41
			C96.192,99.238,94.39,100,92.307,100c-2.162,0-3.965-0.762-5.408-2.283L66.286,77.163c-7.173,4.968-15.165,7.451-23.979,7.451
			c-5.73,0-11.208-1.112-16.436-3.336c-5.229-2.224-9.735-5.228-13.521-9.013C8.563,68.479,5.559,63.972,3.335,58.743z
			 M23.287,23.287c-5.268,5.269-7.902,11.608-7.902,19.02s2.634,13.752,7.902,19.02c5.268,5.269,11.608,7.902,19.02,7.902
			c7.411,0,13.752-2.634,19.021-7.902c5.268-5.267,7.902-11.607,7.902-19.02s-2.635-13.752-7.902-19.02
			c-5.268-5.268-11.609-7.902-19.021-7.902C34.896,15.385,28.555,18.02,23.287,23.287z"/>
	</g>
</g>
<g id="Layer_40" display="none">
	<g display="inline">
		<path d="M58.472,98.785l-20.95-20.95c-0.811-0.811-1.221-1.809-1.216-2.995c-0.005-1.177,0.405-2.185,1.211-2.99
			c0.81-0.811,1.813-1.215,2.999-1.215h13.461V39.581c0-0.622,0.212-1.148,0.607-1.543c0.41-0.41,0.922-0.608,1.549-0.608h10.663
			c0.627-0.005,1.133,0.203,1.538,0.608c0.405,0.405,0.617,0.916,0.617,1.543V70.63l13.465,0.01c1.187-0.01,2.19,0.391,3,1.205
			c0.811,0.806,1.206,1.809,1.206,3.005c0,1.172-0.396,2.165-1.216,2.985l-20.95,20.95c-0.805,0.81-1.817,1.215-2.989,1.215
			C60.28,100,59.281,99.595,58.472,98.785z M31.661,61.978c-0.404-0.405-0.598-0.931-0.598-1.558l-0.005-31.049l-13.475,0.004
			c-1.177-0.004-2.18-0.405-2.99-1.22c-0.811-0.811-1.211-1.809-1.216-2.99c0.005-1.191,0.405-2.185,1.226-3.005l20.95-20.95
			c0.805-0.806,1.799-1.206,2.99-1.211c1.182,0.005,2.18,0.405,2.989,1.216L62.489,22.17c0.81,0.81,1.215,1.813,1.215,2.99
			c-0.005,1.191-0.405,2.185-1.211,2.99c-0.814,0.82-1.808,1.215-3.004,1.225l-13.461-0.009l-0.01,31.063
			c0,0.627-0.197,1.138-0.608,1.548c-0.396,0.396-0.921,0.607-1.533,0.593H33.215C32.592,62.575,32.066,62.383,31.661,61.978z"/>
	</g>
</g>
<g id="Layer_41" display="none">
	<path display="inline" d="M50,0C22.5,0,0,22.5,0,50s22.5,50,50,50s50-22.5,50-50S77.5,0,50,0z M70.996,71.001L45,55V25h7.5v26.001
		L75,64.502L70.996,71.001z"/>
</g>
<g id="Layer_42" display="none">
	<path display="inline" d="M49.997,0.004C22.496,0.004,0,22.502,0,50s22.496,49.996,49.997,49.996S100,77.498,100,50
		S77.497,0.004,49.997,0.004z M74.406,53.693H53.688v20.714h-7.382V53.693H25.589v-7.387h20.716V25.593h7.382v20.714h20.719V53.693z
		"/>
</g>
<g id="Layer_43" display="none">
	<g display="inline">
		<path d="M40.945,41.245h5.997v8.396h-5.997V41.245z M41.545,48.501l2.038-3.059l-2.038-3.058V48.501z M45.982,41.844h-4.078
			l2.039,3.059L45.982,41.844z M45.982,49.041l-2.039-3.059l-2.039,3.059H45.982z M46.342,48.501v-6.117l-2.039,3.058L46.342,48.501
			z"/>
	</g>
</g>
<g id="Layer_8" display="none">
	<g display="inline">
		<path d="M6.708,75.102C2.236,67.439,0,59.074,0,50.002c0-9.072,2.236-17.437,6.708-25.098
			c4.467-7.662,10.534-13.725,18.196-18.196C32.562,2.236,40.931,0,50.002,0c9.068,0,17.437,2.236,25.093,6.708
			c7.663,4.472,13.729,10.534,18.201,18.196C97.765,32.566,100,40.931,100,50.002c0,9.072-2.235,17.437-6.703,25.099
			c-4.472,7.661-10.538,13.724-18.201,18.195C67.439,97.765,59.07,100,50.002,100c-9.072,0-17.441-2.235-25.098-6.703
			C17.242,88.825,11.175,82.763,6.708,75.102z M19.335,32.229c-3.166,5.426-4.752,11.351-4.752,17.773
			c0,6.423,1.586,12.347,4.752,17.774c3.167,5.426,7.468,9.722,12.894,12.889c5.421,3.171,11.346,4.752,17.773,4.752
			c6.423,0,12.347-1.581,17.774-4.752c5.421-3.167,9.718-7.463,12.889-12.889c3.166-5.427,4.752-11.351,4.752-17.774
			c0-6.423-1.586-12.347-4.752-17.773c-3.171-5.426-7.468-9.722-12.889-12.894c-5.427-3.166-11.351-4.752-17.774-4.752
			c-6.428,0-12.352,1.586-17.773,4.752C26.803,22.507,22.502,26.803,19.335,32.229z M27.083,47.918c0-0.522,0.218-1.04,0.65-1.562
			l20.769-20.769c0.479-0.39,0.978-0.584,1.5-0.584c0.518,0,1.016,0.194,1.496,0.584l20.836,20.835
			c0.65,0.693,0.802,1.453,0.455,2.278c-0.352,0.869-1.002,1.301-1.955,1.301h-12.5v22.916c0,0.607-0.195,1.105-0.584,1.5
			c-0.395,0.389-0.893,0.583-1.5,0.583h-12.5c-0.607,0-1.106-0.194-1.495-0.583c-0.394-0.395-0.589-0.893-0.589-1.5V50.002h-12.5
			c-0.607,0-1.106-0.194-1.495-0.588C27.278,49.025,27.083,48.526,27.083,47.918z"/>
	</g>
</g>
<g id="Layer_9" display="none">
	<path display="inline" d="M74.859,50c0-13.73-11.128-24.86-24.859-24.86c-13.729,0-24.859,11.13-24.859,24.86
		c0,13.73,11.13,24.86,24.859,24.86C63.731,74.86,74.859,63.73,74.859,50z M50,67.67c-9.759,0-17.669-7.91-17.669-17.669
		S40.241,32.331,50,32.331c9.757,0,17.672,7.91,17.672,17.669S59.757,67.67,50,67.67z"/>
	<path display="inline" d="M53.595,16.253V3.567c0-4.756-7.19-4.757-7.19,0v12.686C46.404,21.009,53.595,21.009,53.595,16.253z"/>
	<path display="inline" d="M46.404,83.746v12.688c0,4.754,7.19,4.754,7.19,0V83.746C53.595,78.991,46.404,78.991,46.404,83.746z"/>
	<path display="inline" d="M36.241,18.977L29.896,7.99c-2.377-4.119-8.604-0.523-6.227,3.595l6.343,10.987
		C32.391,26.692,38.618,23.095,36.241,18.977z"/>
	<path display="inline" d="M70.103,92.011c2.38,4.118,8.604,0.524,6.227-3.596l-6.343-10.986c-2.377-4.12-8.603-0.524-6.226,3.595
		L70.103,92.011z"/>
	<path display="inline" d="M7.99,29.897l10.987,6.343c4.118,2.378,7.714-3.85,3.595-6.227L11.586,23.67
		C7.466,21.293,3.871,27.519,7.99,29.897z"/>
	<path display="inline" d="M88.416,76.33c4.118,2.377,7.714-3.849,3.593-6.227L81.024,63.76c-4.121-2.378-7.717,3.849-3.596,6.227
		L88.416,76.33z"/>
	<path display="inline" d="M3.567,53.596h12.687c4.756,0,4.756-7.191,0-7.191H3.567C-1.189,46.405-1.189,53.596,3.567,53.596z"/>
	<path display="inline" d="M83.746,53.596h12.687c4.757,0,4.757-7.191,0-7.191H83.746C78.989,46.405,78.989,53.596,83.746,53.596z"
		/>
	<path display="inline" d="M18.978,63.76L7.99,70.104c-4.118,2.378-0.524,8.604,3.596,6.227l10.987-6.343
		C26.691,67.608,23.096,61.383,18.978,63.76z"/>
	<path display="inline" d="M81.024,36.24l10.984-6.343c4.121-2.379,0.525-8.604-3.593-6.227l-10.987,6.343
		C73.308,32.392,76.903,38.619,81.024,36.24z"/>
	<path display="inline" d="M29.896,92.011l6.345-10.987c2.377-4.119-3.85-7.714-6.229-3.595l-6.343,10.986
		C21.292,92.534,27.52,96.129,29.896,92.011z"/>
	<path display="inline" d="M69.986,22.572l6.343-10.987c2.378-4.118-3.847-7.714-6.227-3.595L63.76,18.977
		C61.38,23.095,67.609,26.692,69.986,22.572z"/>
</g>
<g id="Layer_14" display="none">
	<path display="inline" d="M83.115,25.375C80.212,16.284,71.689,9.807,61.78,9.807c-4.21,0-8.274,1.173-11.778,3.345
		c-3.507-2.172-7.571-3.345-11.779-3.345c-9.912,0-18.434,6.477-21.335,15.569C7.162,27.833,0,36.649,0,47.088
		c0,12.365,10.029,22.394,22.396,22.394h55.21C89.972,69.481,100,59.453,100,47.088C100,36.649,92.84,27.833,83.115,25.375z
		 M77.606,63.417h-55.21c-9.02,0-16.332-7.312-16.332-16.329c0-8.873,7.075-16.091,15.891-16.327
		c0.727-8.344,7.731-14.892,16.267-14.892c4.627,0,8.806,1.926,11.779,5.021c2.973-3.094,7.148-5.021,11.778-5.021
		c8.534,0,15.538,6.548,16.268,14.892c8.815,0.236,15.888,7.454,15.888,16.327C93.936,56.105,86.625,63.417,77.606,63.417z"/>
	<circle display="inline" cx="50.002" cy="84.49" r="5.702"/>
	<circle display="inline" cx="71.994" cy="84.49" r="5.701"/>
	<circle display="inline" cx="28.008" cy="84.49" r="5.702"/>
</g>
<g id="Layer_15" display="none">
	<path display="inline" d="M83.714,51.614c2.221-8.851-3.155-17.824-12.004-20.043c-6.985-1.75-14.035,1.241-17.79,6.926
		c1.56,0.486,3.028,1.182,4.373,2.057c2.75-3.669,7.526-5.534,12.254-4.348c6.291,1.577,10.111,7.954,8.533,14.243
		c-0.62,2.472-1.987,4.553-3.794,6.086c0.966,1.292,1.754,2.72,2.339,4.25C80.542,58.592,82.758,55.427,83.714,51.614z"/>
	<path display="inline" d="M75.463,26.425l2.051-8.177c0.769-3.066-3.865-4.228-4.636-1.163l-2.049,8.178
		C70.059,28.328,74.694,29.489,75.463,26.425z"/>
	<path display="inline" d="M63.836,25.376l-2.312-8.108c-0.867-3.039-5.462-1.728-4.594,1.311l2.312,8.107
		C60.109,29.725,64.704,28.414,63.836,25.376z"/>
	<path display="inline" d="M53.242,30.28l-6.055-5.865c-2.271-2.198-5.594,1.234-3.323,3.433l6.056,5.865
		C52.19,35.91,55.513,32.478,53.242,30.28z"/>
	<path display="inline" d="M85.463,61.479c-2.27-2.199-5.594,1.232-3.323,3.43l6.058,5.866c2.269,2.197,5.594-1.234,3.323-3.432
		L85.463,61.479z"/>
	<path display="inline" d="M98.201,52.782l-8.178-2.051c-3.065-0.769-4.227,3.865-1.161,4.636l8.177,2.051
		C100.104,58.185,101.267,53.551,98.201,52.782z"/>
	<path display="inline" d="M89.91,43.74l8.109-2.314c3.037-0.866,1.726-5.461-1.313-4.594l-8.104,2.314
		C85.561,40.013,86.871,44.607,89.91,43.74z"/>
	<path display="inline" d="M87.438,23.766l-5.864,6.057c-2.199,2.271,1.234,5.594,3.432,3.324l5.864-6.057
		C93.07,24.82,89.637,21.496,87.438,23.766z"/>
	<path display="inline" d="M74.013,67.068c0,7.105-5.761,12.866-12.868,12.866h-43.5c-7.105,0-12.868-5.761-12.868-12.866
		c0-6.991,5.575-12.681,12.521-12.864c0.573-6.576,6.093-11.735,12.818-11.735c3.647,0,6.938,1.518,9.281,3.956
		c2.342-2.438,5.633-3.956,9.281-3.956c1.108,0,2.176,0.152,3.202,0.416c0.473-1.593,1.166-3.062,2.041-4.388
		c-1.662-0.518-3.421-0.806-5.243-0.806c-3.317,0-6.52,0.925-9.281,2.635c-2.763-1.71-5.966-2.635-9.281-2.635
		c-7.81,0-14.525,5.105-16.811,12.267C5.643,51.897,0,58.842,0,67.066c0,9.743,7.902,17.647,17.645,17.647h43.5
		c9.744,0,17.646-7.904,17.646-17.647c0-2.212-0.421-4.325-1.166-6.281c-1.293,0.974-2.722,1.757-4.243,2.316
		C73.785,64.353,74.013,65.683,74.013,67.068z"/>
	<path display="inline" d="M56.259,44.954c0.017-0.072,0.026-0.143,0.043-0.214c0.393-1.563,1.082-2.972,1.991-4.185
		c-1.345-0.875-2.813-1.57-4.373-2.057c-0.875,1.325-1.568,2.795-2.041,4.388C53.482,43.297,54.963,44.004,56.259,44.954z"/>
	<path display="inline" d="M71.03,58.84c1.036,1.245,1.84,2.686,2.352,4.262c1.521-0.56,2.95-1.343,4.243-2.316
		c-0.585-1.53-1.373-2.958-2.339-4.25C74.045,57.587,72.597,58.372,71.03,58.84z"/>
	<path display="inline" d="M56.259,44.954c2.913,2.132,4.902,5.451,5.234,9.25c3.834,0.102,7.245,1.886,9.537,4.636
		c1.566-0.468,3.015-1.253,4.256-2.305c-2.382-3.195-5.812-5.567-9.799-6.576c-1.251-3.92-3.836-7.216-7.194-9.405
		c-0.909,1.213-1.599,2.622-1.991,4.185C56.285,44.811,56.275,44.882,56.259,44.954z"/>
</g>
<g id="Layer_16" display="none">
	<g display="inline">
		<path d="M0.005,24.074c0-4.355,1.207-8.757,3.62-13.205c2.651-4.785,5.169-7.674,7.529-8.668c1.182-0.518,2.797-1.015,4.867-1.492
			C18.073,0.237,19.751,0,21.035,0c0.662,0,1.159,0.072,1.491,0.212c0.85,0.285,2.092,2.088,3.749,5.401
			c0.518,0.901,1.243,2.175,2.134,3.832c0.911,1.657,1.739,3.164,2.485,4.511c0.767,1.35,1.491,2.614,2.196,3.801
			c0.145,0.191,0.559,0.782,1.242,1.776c0.703,0.994,1.202,1.833,1.533,2.523c0.331,0.683,0.497,1.36,0.497,2.018
			c0,0.947-0.663,2.134-2.03,3.553c-1.346,1.419-2.817,2.724-4.392,3.904c-1.594,1.187-3.065,2.438-4.412,3.765
			c-1.346,1.325-2.009,2.418-2.009,3.268c0,0.425,0.104,0.958,0.352,1.6c0.227,0.638,0.435,1.124,0.601,1.456
			c0.166,0.331,0.497,0.9,0.994,1.708c0.497,0.808,0.767,1.243,0.809,1.347c3.604,6.484,7.727,12.056,12.366,16.685
			c4.64,4.651,10.19,8.763,16.694,12.356c0.084,0.052,0.539,0.319,1.348,0.817c0.807,0.497,1.366,0.838,1.697,0.994
			c0.332,0.176,0.809,0.362,1.451,0.61c0.642,0.228,1.18,0.353,1.595,0.353c0.869,0,1.947-0.684,3.272-2.03
			c1.326-1.347,2.589-2.817,3.77-4.401c1.182-1.585,2.485-3.056,3.894-4.402c1.429-1.346,2.61-2.029,3.562-2.029
			c0.663,0,1.325,0.165,2.03,0.497c0.683,0.331,1.512,0.85,2.507,1.532c0.994,0.684,1.595,1.099,1.781,1.243
			c1.18,0.704,2.442,1.45,3.79,2.195c1.367,0.767,2.858,1.596,4.515,2.486c1.658,0.911,2.942,1.616,3.833,2.134
			c3.314,1.655,5.116,2.919,5.406,3.77c0.146,0.331,0.207,0.828,0.207,1.491c0,1.273-0.229,2.941-0.704,5.002
			c-0.477,2.062-0.974,3.677-1.491,4.868c-0.994,2.372-3.896,4.877-8.658,7.529C84.687,98.789,80.275,100,75.926,100
			c-1.284,0-2.526-0.084-3.728-0.249c-1.202-0.165-2.569-0.465-4.082-0.891c-1.512-0.436-2.65-0.766-3.376-1.036
			c-0.745-0.248-2.051-0.745-3.935-1.449c-1.905-0.716-3.066-1.14-3.479-1.285c-4.641-1.656-8.783-3.624-12.429-5.892
			c-6.069-3.739-12.324-8.834-18.787-15.297c-6.462-6.463-11.579-12.727-15.307-18.787c-2.278-3.646-4.247-7.788-5.903-12.428
			c-0.136-0.436-0.56-1.596-1.274-3.48c-0.715-1.895-1.191-3.21-1.461-3.945c-0.248-0.73-0.601-1.854-1.024-3.371
			c-0.425-1.513-0.72-2.875-0.886-4.086C0.089,26.597,0.005,25.354,0.005,24.074z"/>
	</g>
</g>
<g id="Layer_17" display="none">
	<g display="inline">
		<path d="M0,20.871c0-2.897,0.769-5.322,2.315-7.25c1.546-1.929,3.743-2.905,6.608-2.905h82.142c2.425,0,4.509,0.879,6.282,2.62
			C99.104,15.093,100,17.193,100,19.65c0,2.93-0.912,5.745-2.734,8.422c-1.823,2.678-4.102,4.964-6.819,6.86
			c-13.98,9.716-22.688,15.755-26.105,18.139c-0.375,0.26-1.172,0.822-2.377,1.701c-1.204,0.879-2.213,1.578-3.011,2.115
			c-0.797,0.545-1.773,1.146-2.896,1.822c-1.14,0.668-2.214,1.172-3.207,1.498c-1.009,0.342-1.937,0.504-2.799,0.504h-0.049h-0.065
			c-0.846,0-1.773-0.162-2.783-0.504c-1.009-0.326-2.083-0.83-3.207-1.498c-1.139-0.676-2.1-1.277-2.913-1.822
			c-0.798-0.537-1.791-1.236-3.011-2.115c-1.204-0.879-2.001-1.441-2.36-1.701c-3.385-2.384-8.268-5.778-14.631-10.181
			c-6.364-4.411-10.172-7.064-11.442-7.958c-2.294-1.562-4.476-3.711-6.526-6.445C1.021,25.754,0,23.215,0,20.871z M0,80.357V36.056
			c1.631,1.823,3.52,3.434,5.635,4.85c13.459,9.147,22.704,15.566,27.733,19.254c2.116,1.562,3.841,2.783,5.16,3.654
			c1.318,0.869,3.076,1.766,5.273,2.676c2.197,0.912,4.248,1.367,6.136,1.367h0.065h0.049c1.904,0,3.938-0.455,6.136-1.367
			c2.197-0.91,3.955-1.807,5.273-2.676c1.318-0.871,3.043-2.092,5.159-3.654c6.331-4.574,15.592-10.995,27.798-19.254
			c2.116-1.449,3.972-3.068,5.583-4.85v44.301c0,2.457-0.879,4.557-2.62,6.307c-1.758,1.742-3.857,2.621-6.315,2.621H8.923
			c-2.45,0-4.557-0.879-6.299-2.621C0.875,84.914,0,82.814,0,80.357z"/>
	</g>
</g>
<g id="Layer_18" display="none">
	<g display="inline">
		<path d="M33.326,4.546c-0.052-1.232,0.363-2.293,1.243-3.195C35.438,0.45,36.495,0,37.717,0h22.722c1.243,0,2.3,0.45,3.17,1.352
			c0.87,0.901,1.284,1.963,1.242,3.195l-1.988,54.544c-0.041,1.223-0.538,2.3-1.45,3.19c-0.932,0.911-2.009,1.346-3.232,1.346
			H39.996c-1.222,0-2.3-0.435-3.231-1.346c-0.922-0.891-1.409-1.968-1.45-3.19L33.326,4.546z M35.449,95.443V79.535
			c0-1.222,0.446-2.289,1.356-3.188c0.891-0.892,1.968-1.348,3.19-1.348h18.186c1.223,0,2.3,0.456,3.191,1.348
			c0.891,0.899,1.347,1.967,1.347,3.188v15.908c0,1.243-0.456,2.299-1.347,3.201c-0.891,0.9-1.968,1.355-3.191,1.355H39.996
			c-1.222,0-2.3-0.455-3.19-1.355C35.895,97.742,35.449,96.687,35.449,95.443z"/>
	</g>
</g>
<g id="Layer_19" display="none">
	<g display="inline">
		<path d="M16.663,33.335c0-9.2,3.252-17.057,9.765-23.57C32.941,3.256,40.803,0,49.993,0c9.21,0,17.052,3.256,23.565,9.765
			c6.512,6.514,9.779,14.37,9.779,23.57c0,4.732-0.721,8.616-2.164,11.654L57.475,95.376c-0.684,1.434-1.709,2.563-3.076,3.39
			C53.031,99.581,51.551,100,49.993,100c-1.557,0-3.019-0.419-4.386-1.234c-1.367-0.826-2.374-1.956-3.038-3.39L18.813,44.989
			C17.38,41.951,16.663,38.067,16.663,33.335z M38.22,21.552c-3.266,3.251-4.899,7.183-4.899,11.783s1.633,8.53,4.899,11.783
			c3.247,3.256,7.178,4.884,11.773,4.884c4.595,0,8.526-1.628,11.792-4.884c3.246-3.252,4.881-7.183,4.881-11.783
			s-1.635-8.531-4.881-11.783c-3.266-3.257-7.197-4.885-11.792-4.885C45.398,16.667,41.467,18.295,38.22,21.552z"/>
	</g>
</g>
<g id="gyermek" display="none">
	<path display="inline" fill-rule="evenodd" clip-rule="evenodd" d="M43.116,97c-1.831-0.596-3.257-1.632-3.706-3.616
		c-0.145-0.641-0.129-1.325-0.13-1.99c-0.004-16.63-0.001-33.26,0-49.89c0-0.654,0-1.309-0.155-2
		c-0.153,0.277-0.314,0.551-0.459,0.833c-3.029,5.845-6.052,11.692-9.086,17.535c-0.772,1.486-1.997,2.359-3.684,2.444
		c-1.722,0.087-3.068-0.643-3.964-2.118c-0.762-1.252-0.883-2.618-0.248-3.923c3.357-6.898,6.709-13.8,10.181-20.641
		c0.785-1.545,1.934-2.947,3.098-4.252c1.944-2.177,4.515-3.134,7.403-3.156c4.895-0.037,9.789-0.042,14.684,0.001
		c3.438,0.03,6.329,1.417,8.283,4.217c1.676,2.399,3.123,4.983,4.447,7.6c2.685,5.301,5.233,10.673,7.807,16.03
		c0.929,1.935,0.411,4.07-1.197,5.331c-1.563,1.226-3.77,1.286-5.309,0.011c-0.609-0.505-1.109-1.213-1.479-1.922
		c-3.007-5.753-5.971-11.529-8.948-17.297c-0.109-0.212-0.221-0.422-0.471-0.896c-0.035,0.506-0.068,0.744-0.068,0.981
		c-0.002,16.995-0.035,33.989,0.032,50.984c0.011,2.857-0.981,4.789-3.712,5.735c-0.669,0-1.338,0-2.008,0
		c-2.744-0.934-3.754-2.875-3.723-5.729c0.091-8.269,0.035-16.538,0.036-24.807c0.001-0.445,0-0.892,0-1.347
		c-0.751,0-1.372,0-2.07,0c0,0.515,0.001,0.967,0,1.418c0,8.451-0.006,16.902,0.005,25.354c0.001,1.294-0.209,2.561-1.176,3.429
		c-0.785,0.703-1.817,1.131-2.74,1.682C44.21,97,43.663,97,43.116,97z"/>
	<path display="inline" fill-rule="evenodd" clip-rule="evenodd" d="M49.638,24.434c-5.801-0.031-10.405-4.663-10.376-10.438
		c0.03-5.933,4.651-10.43,10.684-10.399c5.589,0.029,10.171,4.761,10.147,10.479C60.069,19.854,55.416,24.464,49.638,24.434z"/>
</g>
<g id="felnott" display="none">
	<path display="inline" fill-rule="evenodd" clip-rule="evenodd" d="M46.614,100c-1.286-0.418-2.287-1.146-2.602-2.539
		c-0.102-0.449-0.091-0.931-0.091-1.397c-0.003-11.676,0-23.352,0-35.027c0-0.46,0-0.919-0.109-1.404
		c-0.108,0.194-0.221,0.387-0.323,0.584c-2.126,4.103-4.25,8.209-6.379,12.311c-0.542,1.044-1.402,1.656-2.587,1.716
		c-1.209,0.062-2.154-0.451-2.784-1.487c-0.535-0.879-0.62-1.838-0.174-2.754c2.357-4.844,4.711-9.688,7.148-14.492
		c0.551-1.085,1.358-2.069,2.175-2.985c1.365-1.528,3.17-2.201,5.198-2.216c3.437-0.025,6.874-0.029,10.312,0.001
		c2.414,0.021,4.445,0.995,5.817,2.96c1.177,1.686,2.193,3.499,3.123,5.336c1.885,3.723,3.674,7.494,5.481,11.255
		c0.651,1.358,0.288,2.858-0.841,3.743c-1.098,0.86-2.646,0.903-3.728,0.008c-0.428-0.354-0.778-0.851-1.039-1.35
		c-2.11-4.039-4.191-8.095-6.283-12.145c-0.077-0.148-0.155-0.296-0.331-0.629c-0.024,0.354-0.048,0.521-0.048,0.688
		c-0.001,11.933-0.024,23.864,0.022,35.797c0.008,2.006-0.689,3.362-2.607,4.026c-0.47,0-0.939,0-1.41,0
		c-1.928-0.655-2.638-2.019-2.615-4.022c0.065-5.805,0.024-11.611,0.025-17.416c0.001-0.313,0-0.627,0-0.946
		c-0.527,0-0.963,0-1.454,0c0,0.361,0.001,0.679,0,0.996c0,5.934-0.004,11.867,0.004,17.801c0.001,0.908-0.146,1.798-0.826,2.407
		c-0.551,0.493-1.276,0.794-1.924,1.181C47.383,100,46.999,100,46.614,100z"/>
	<path display="inline" fill-rule="evenodd" clip-rule="evenodd" d="M51.194,49.051c-4.074-0.022-7.306-3.274-7.286-7.329
		c0.021-4.166,3.265-7.323,7.501-7.301c3.926,0.021,7.145,3.343,7.128,7.357C58.521,45.835,55.253,49.072,51.194,49.051z"/>
</g>
<g id="dijak_x5F_kedvezmenyek" display="none">
	<path display="inline" d="M73.087,26.177c-4.418-4.418-4.429-11.573-0.037-16.007l-5.9-5.901L3.435,67.983l5.899,5.898
		c4.431-4.431,11.616-4.431,16.047,0c4.431,4.433,4.431,11.616,0,16.047l6.135,6.136L95.23,32.351l-6.138-6.137
		C84.66,30.606,77.506,30.595,73.087,26.177z"/>
</g>
<g id="Layer_51" display="none">
	<g display="inline">
		<path d="M96.43,21.427v71.427c0,1.938-0.717,3.613-2.115,5.029C92.898,99.3,91.221,100,89.285,100H10.712
			c-1.929,0-3.605-0.7-5.021-2.116c-1.416-1.416-2.12-3.092-2.12-5.029V21.427c0-1.933,0.704-3.609,2.12-5.021
			c1.416-1.412,3.092-2.12,5.021-2.12h7.137V8.927c0-2.454,0.879-4.557,2.637-6.307C22.227,0.875,24.327,0,26.785,0h3.564
			c2.457,0,4.557,0.875,6.315,2.621c1.742,1.75,2.621,3.853,2.621,6.307v5.359h21.436V8.927c0-2.454,0.861-4.557,2.619-6.307
			C65.082,0.875,67.182,0,69.639,0h3.582c2.441,0,4.557,0.875,6.299,2.621c1.74,1.75,2.619,3.853,2.619,6.307v5.359h7.146
			c1.936,0,3.613,0.708,5.029,2.12C95.713,17.818,96.43,19.495,96.43,21.427z M10.712,92.854h78.573V35.714H10.712V92.854z
			 M32.139,25V8.927c0-0.521-0.163-0.948-0.504-1.282c-0.326-0.337-0.765-0.504-1.286-0.504h-3.564
			c-0.521,0-0.944,0.167-1.286,0.504c-0.325,0.334-0.504,0.761-0.504,1.282V25c0,0.521,0.179,0.948,0.504,1.282
			c0.342,0.338,0.765,0.504,1.286,0.504h3.564c0.521,0,0.96-0.167,1.286-0.504C31.977,25.948,32.139,25.521,32.139,25z M74.994,25
			V8.927c0-0.521-0.162-0.948-0.504-1.282c-0.326-0.337-0.75-0.504-1.269-0.504h-3.582c-0.52,0-0.943,0.167-1.285,0.504
			c-0.326,0.334-0.504,0.761-0.504,1.282V25c0,0.521,0.178,0.948,0.504,1.282c0.342,0.338,0.766,0.504,1.285,0.504h3.582
			c0.519,0,0.943-0.167,1.269-0.504C74.832,25.948,74.994,25.521,74.994,25z"/>
	</g>
</g>
<g id="Layer_26" display="none">
	<g id="Symbols" display="inline">
		<g id="ember_ikon_fo_szamlalo">
			<g id="Fill-79-_x2B_-Fill-80" transform="translate(0.567164, 0.750000)">
				<path id="Fill-79" d="M64.037,13.096c0-7.634-6.552-13.846-14.604-13.846S34.828,5.462,34.828,13.096
					s6.552,13.846,14.604,13.846S64.037,20.73,64.037,13.096"/>
				<path id="Fill-80" d="M49.433,34.635c-13.421,0-24.341,10.352-24.341,23.077v13.846c0,2.548,2.181,4.615,4.868,4.615h4.868
					v18.462c0,2.548,2.181,4.615,4.868,4.615h19.472c2.687,0,4.868-2.068,4.868-4.615V76.173h4.868c2.687,0,4.868-2.068,4.868-4.615
					V57.712C73.773,44.987,62.854,34.635,49.433,34.635"/>
			</g>
		</g>
	</g>
</g>
<g id="Layer_27">
	<path id="Rectangle-61" fill="#010101" d="M9.722,6.25h80.556c5.369,0,9.722,4.353,9.722,9.722l0,0
		c0,5.369-4.353,9.722-9.722,9.722H9.722C4.353,25.694,0,21.342,0,15.972l0,0C0,10.603,4.353,6.25,9.722,6.25z"/>
	<path id="Rectangle-61_1_" fill="#010101" d="M9.722,74.306h80.556c5.369,0,9.722,4.353,9.722,9.722l0,0
		c0,5.369-4.353,9.722-9.722,9.722H9.722C4.353,93.75,0,89.397,0,84.028l0,0C0,78.658,4.353,74.306,9.722,74.306z"/>
	<path id="Rectangle-61_2_" fill="#010101" d="M9.722,40.278h80.556c5.369,0,9.722,4.353,9.722,9.722l0,0
		c0,5.369-4.353,9.722-9.722,9.722H9.722C4.353,59.722,0,55.369,0,50l0,0C0,44.631,4.353,40.278,9.722,40.278z"/>
	<g>
	</g>
	<g>
	</g>
	<g>
	</g>
	<g>
	</g>
	<g>
	</g>
	<g>
	</g>
</g>
</svg>
