<?xml version="1.0" encoding="utf-8"?>
<!-- Generator: Adobe Illustrator 19.0.0, SVG Export Plug-In . SVG Version: 6.00 Build 0)  -->
<svg version="1.0" xmlns="http://www.w3.org/2000/svg" xmlns:xlink="http://www.w3.org/1999/xlink" x="0px" y="0px"
	 viewBox="0 0 100 100" enable-background="new 0 0 100 100" xml:space="preserve">
<g id="filter" display="none">
	<path display="inline" d="M0,65.139v6.088c0,0.794,0.382,1.5,1.071,2.117c0.688,0.584,1.559,0.909,2.534,0.909H46.89
		c0.976,0,1.846-0.325,2.534-0.909c0.688-0.617,1.071-1.323,1.071-2.117v-6.088c0-0.828-0.383-1.533-1.071-2.118
		c-0.688-0.617-1.559-0.909-2.534-0.909H3.605c-0.975,0-1.846,0.292-2.534,0.909C0.382,63.605,0,64.311,0,65.139z M0,46.933v6.097
		c0,0.795,0.382,1.533,1.071,2.118c0.688,0.617,1.559,0.909,2.534,0.909H75c0.975,0,1.768-0.292,2.534-0.909
		c0.687-0.585,1.071-1.323,1.071-2.118v-6.097c0-0.785-0.385-1.524-1.071-2.108c-0.767-0.632-1.56-0.91-2.534-0.91H3.605
		c-0.975,0-1.846,0.278-2.534,0.91C0.382,45.408,0,46.147,0,46.933z M0,28.749v6.059c0,0.829,0.382,1.559,1.071,2.143
		c0.688,0.595,1.559,0.909,2.534,0.909h92.79c0.976,0,1.846-0.315,2.534-0.909c0.688-0.584,1.071-1.313,1.071-2.143v-6.059
		c0-0.827-0.384-1.504-1.071-2.092c-0.689-0.643-1.559-0.91-2.534-0.91H3.605c-0.975,0-1.846,0.267-2.534,0.91
		C0.382,27.245,0,27.922,0,28.749z"/>
</g>
<g id="mark" display="none">
	<g display="inline">
		<path d="M0,50c0-1.722,0.602-3.189,1.807-4.394l8.769-8.77c1.205-1.205,2.672-1.807,4.394-1.807c1.713,0,3.181,0.602,4.385,1.807
			l18.969,19.034l42.322-42.388c1.204-1.205,2.672-1.807,4.385-1.807c1.722,0,3.189,0.602,4.394,1.807l8.77,8.769
			c1.204,1.205,1.807,2.672,1.807,4.385c0,1.732-0.603,3.19-1.807,4.394L51.486,77.747l-8.778,8.77
			c-1.204,1.204-2.663,1.807-4.385,1.807c-1.722,0-3.189-0.602-4.385-1.807l-8.778-8.77L1.807,54.385C0.602,53.181,0,51.722,0,50z"
			/>
	</g>
</g>
<g id="globe" display="none">
	<g display="inline">
		<path d="M6.708,75.102C2.236,67.439,0,59.074,0,50.002c0-9.072,2.236-17.437,6.708-25.098
			c4.467-7.662,10.534-13.725,18.196-18.196C32.562,2.236,40.931,0,50.002,0c9.068,0,17.437,2.236,25.093,6.708
			c7.663,4.472,13.729,10.534,18.201,18.196C97.765,32.566,100,40.931,100,50.002c0,9.072-2.235,17.437-6.703,25.099
			c-4.472,7.661-10.538,13.724-18.201,18.195C67.439,97.765,59.07,100,50.002,100c-9.072,0-17.441-2.235-25.098-6.703
			C17.242,88.825,11.175,82.763,6.708,75.102z M14.712,27.933c0.304,0.304,0.565,0.475,0.783,0.518
			c0.171,0.047,0.28,0.242,0.328,0.589c0.042,0.346,0.095,0.584,0.161,0.717c0.067,0.128,0.313,0.062,0.75-0.195
			c0.389,0.347,0.455,0.76,0.194,1.234c0.043-0.043,0.997,0.546,2.863,1.756c0.826,0.741,1.282,1.196,1.367,1.367
			c0.133,0.479-0.086,0.869-0.65,1.173c-0.043-0.085-0.237-0.28-0.584-0.584c-0.351-0.304-0.546-0.389-0.589-0.261
			c-0.128,0.218-0.119,0.617,0.033,1.205c0.152,0.584,0.38,0.855,0.684,0.812c-0.304,0-0.513,0.347-0.617,1.044
			c-0.109,0.693-0.167,1.462-0.167,2.307c0,0.85-0.019,1.358-0.061,1.533l0.128,0.062c-0.128,0.522-0.009,1.272,0.361,2.25
			c0.366,0.973,0.831,1.396,1.396,1.268c-0.565,0.128-0.128,1.063,1.305,2.801c0.261,0.347,0.432,0.541,0.518,0.584
			c0.133,0.09,0.394,0.251,0.783,0.489c0.389,0.237,0.717,0.456,0.978,0.65c0.261,0.195,0.475,0.422,0.65,0.684
			c0.171,0.218,0.389,0.708,0.65,1.466c0.261,0.76,0.565,1.268,0.912,1.529c-0.086,0.262,0.119,0.693,0.617,1.301
			c0.499,0.607,0.726,1.105,0.684,1.5c-0.042,0-0.095,0.02-0.161,0.062c-0.066,0.048-0.119,0.067-0.162,0.067
			c0.128,0.303,0.465,0.607,1.006,0.91c0.542,0.305,0.878,0.59,1.011,0.846c0.043,0.133,0.085,0.352,0.128,0.655
			c0.043,0.304,0.109,0.541,0.194,0.712c0.09,0.176,0.261,0.219,0.523,0.133c0.086-0.869-0.432-2.212-1.562-4.035
			c-0.65-1.087-1.021-1.714-1.106-1.889c-0.133-0.219-0.251-0.557-0.361-1.012c-0.109-0.456-0.204-0.769-0.29-0.945
			c0.085,0,0.213,0.033,0.389,0.1c0.171,0.066,0.356,0.143,0.556,0.229c0.194,0.086,0.356,0.176,0.484,0.262
			c0.133,0.085,0.176,0.151,0.133,0.193c-0.133,0.305-0.09,0.684,0.128,1.141c0.218,0.455,0.479,0.858,0.783,1.205
			c0.304,0.347,0.669,0.76,1.106,1.234c0.432,0.479,0.693,0.76,0.783,0.85c0.256,0.256,0.56,0.684,0.911,1.268
			c0.347,0.584,0.347,0.879,0,0.879c0.39,0,0.821,0.218,1.301,0.65c0.475,0.435,0.845,0.868,1.106,1.305
			c0.218,0.347,0.389,0.911,0.522,1.69c0.128,0.783,0.237,1.301,0.323,1.562c0.085,0.304,0.271,0.599,0.556,0.878
			c0.28,0.285,0.551,0.489,0.812,0.622c0.261,0.128,0.608,0.304,1.044,0.518c0.432,0.219,0.717,0.37,0.845,0.456
			c0.218,0.09,0.617,0.317,1.205,0.684c0.584,0.37,1.049,0.621,1.4,0.75c0.432,0.176,0.779,0.261,1.04,0.261
			c0.261,0,0.575-0.052,0.945-0.161c0.366-0.109,0.66-0.186,0.878-0.229c0.65-0.085,1.282,0.238,1.889,0.974
			c0.608,0.74,1.063,1.196,1.367,1.367c1.562,0.826,2.753,1.068,3.58,0.717c-0.086,0.048-0.076,0.209,0.033,0.489
			c0.109,0.284,0.28,0.617,0.521,1.011c0.238,0.39,0.433,0.703,0.584,0.945c0.152,0.237,0.271,0.422,0.356,0.55
			c0.219,0.262,0.608,0.589,1.173,0.979c0.564,0.389,0.954,0.717,1.172,0.978c0.262-0.176,0.414-0.37,0.457-0.589
			c-0.129,0.347,0.024,0.784,0.455,1.301c0.432,0.522,0.826,0.741,1.172,0.655c0.608-0.133,0.912-0.826,0.912-2.084
			c-1.348,0.65-2.406,0.262-3.189-1.173c0-0.042-0.058-0.161-0.162-0.36c-0.109-0.194-0.195-0.375-0.262-0.551
			c-0.066-0.176-0.118-0.36-0.16-0.556c-0.048-0.194-0.048-0.355,0-0.488c0.042-0.129,0.146-0.195,0.322-0.195
			c0.389,0,0.607-0.075,0.65-0.227c0.043-0.151,0-0.423-0.129-0.812c-0.133-0.39-0.218-0.674-0.26-0.845
			c-0.043-0.347-0.285-0.784-0.717-1.306c-0.433-0.518-0.693-0.846-0.779-0.974c-0.219,0.39-0.564,0.565-1.045,0.518
			c-0.479-0.043-0.825-0.237-1.039-0.584c0,0.043-0.033,0.161-0.1,0.357c-0.066,0.194-0.096,0.337-0.096,0.422
			c-0.564,0-0.892-0.019-0.977-0.062c0.042-0.133,0.095-0.513,0.161-1.14c0.066-0.631,0.143-1.12,0.228-1.467
			c0.042-0.171,0.161-0.432,0.361-0.778c0.193-0.347,0.355-0.664,0.483-0.944c0.134-0.285,0.219-0.556,0.261-0.816
			c0.043-0.262-0.052-0.466-0.289-0.617c-0.242-0.152-0.622-0.204-1.139-0.162c-0.826,0.043-1.391,0.476-1.695,1.301
			c-0.043,0.129-0.109,0.356-0.195,0.684c-0.09,0.328-0.194,0.575-0.328,0.75c-0.128,0.171-0.323,0.323-0.583,0.456
			c-0.304,0.128-0.826,0.171-1.562,0.128c-0.741-0.042-1.263-0.151-1.562-0.322c-0.565-0.347-1.054-0.979-1.467-1.89
			c-0.413-0.911-0.617-1.714-0.617-2.411c0-0.433,0.052-1.007,0.162-1.724c0.109-0.717,0.171-1.258,0.194-1.629
			c0.024-0.365-0.095-0.896-0.356-1.594c0.128-0.086,0.323-0.295,0.584-0.617c0.261-0.328,0.479-0.557,0.65-0.684
			c0.085-0.043,0.185-0.076,0.294-0.1c0.109-0.02,0.204-0.02,0.294,0c0.085,0.024,0.171-0.01,0.261-0.096
			c0.085-0.086,0.147-0.219,0.195-0.395c-0.047-0.042-0.133-0.104-0.261-0.193c-0.133-0.129-0.218-0.195-0.261-0.195
			c0.304,0.133,0.921,0.1,1.856-0.095c0.93-0.2,1.528-0.167,1.79,0.095c0.65,0.479,1.13,0.437,1.433-0.129
			c0-0.042-0.057-0.251-0.166-0.621c-0.109-0.365-0.119-0.66-0.028-0.879c0.213,1.174,0.845,1.367,1.884,0.59
			c0.134,0.127,0.466,0.236,1.011,0.322c0.542,0.09,0.922,0.194,1.141,0.328c0.127,0.085,0.279,0.203,0.455,0.355
			c0.171,0.152,0.295,0.252,0.355,0.295c0.066,0.042,0.176,0.033,0.328-0.033c0.152-0.067,0.337-0.205,0.551-0.424
			c0.437,0.608,0.697,1.131,0.783,1.562c0.475,1.737,0.888,2.691,1.238,2.867c0.3,0.129,0.542,0.171,0.713,0.129
			c0.176-0.043,0.271-0.248,0.295-0.617c0.023-0.371,0.023-0.675,0-0.912c-0.024-0.237-0.053-0.513-0.096-0.816l-0.066-0.518
			c0-0.395,0-0.783,0-1.172l-0.066-0.523c-0.65-0.127-1.054-0.389-1.206-0.783c-0.151-0.389-0.118-0.787,0.101-1.201
			c0.218-0.412,0.541-0.816,0.977-1.205c0.043-0.043,0.215-0.119,0.518-0.228c0.305-0.109,0.642-0.247,1.012-0.422
			c0.37-0.176,0.641-0.347,0.812-0.522c0.911-0.821,1.239-1.581,0.977-2.279c0.305,0,0.542-0.195,0.717-0.584
			c-0.042,0-0.151-0.066-0.327-0.195c-0.171-0.133-0.337-0.242-0.483-0.327c-0.157-0.085-0.252-0.128-0.295-0.128
			c0.389-0.218,0.432-0.565,0.129-1.044c0.218-0.128,0.379-0.366,0.488-0.717c0.109-0.347,0.271-0.56,0.488-0.65
			c0.391,0.522,0.846,0.565,1.367,0.133c0.305-0.346,0.328-0.698,0.066-1.044c0.215-0.304,0.66-0.531,1.334-0.684
			c0.67-0.152,1.074-0.356,1.207-0.617c0.299,0.085,0.475,0.042,0.518-0.133c0.042-0.171,0.066-0.432,0.066-0.778
			c0-0.347,0.066-0.608,0.193-0.783c0.176-0.214,0.499-0.408,0.979-0.584c0.475-0.176,0.76-0.28,0.846-0.328l1.105-0.717
			c0.133-0.171,0.133-0.256,0-0.256c0.783,0.085,1.453-0.152,2.018-0.717c0.437-0.479,0.304-0.912-0.389-1.306
			c0.133-0.256,0.066-0.465-0.195-0.617c-0.262-0.152-0.584-0.271-0.979-0.356c0.134-0.042,0.381-0.057,0.75-0.033
			c0.371,0.024,0.599-0.009,0.684-0.1c0.65-0.432,0.499-0.779-0.455-1.04c-0.74-0.218-1.671,0.043-2.801,0.778
			c-0.086,0.047-0.289,0.252-0.617,0.622c-0.328,0.37-0.617,0.574-0.879,0.617c0.086,0,0.186-0.109,0.295-0.328
			c0.104-0.214,0.214-0.456,0.322-0.712c0.109-0.261,0.186-0.413,0.229-0.456c0.262-0.304,0.736-0.631,1.434-0.978
			c0.607-0.261,1.732-0.522,3.385-0.783c1.477-0.347,2.582-0.104,3.318,0.717c-0.086-0.085,0.119-0.365,0.622-0.845
			c0.498-0.479,0.812-0.736,0.944-0.783c0.128-0.085,0.456-0.181,0.974-0.29c0.521-0.109,0.85-0.27,0.977-0.489l0.128-1.434
			c-0.517,0.042-0.897-0.109-1.139-0.455c-0.237-0.347-0.38-0.802-0.423-1.367c0,0.085-0.128,0.261-0.39,0.522
			c0-0.304-0.1-0.479-0.294-0.522c-0.194-0.043-0.446-0.019-0.745,0.066c-0.309,0.085-0.503,0.109-0.589,0.062
			c-0.432-0.128-0.76-0.289-0.979-0.484c-0.213-0.199-0.389-0.555-0.517-1.077c-0.134-0.518-0.219-0.845-0.261-0.974
			c-0.091-0.218-0.295-0.446-0.617-0.684c-0.328-0.242-0.537-0.47-0.623-0.684c-0.042-0.09-0.094-0.208-0.16-0.36
			c-0.066-0.152-0.129-0.294-0.195-0.423c-0.066-0.128-0.152-0.247-0.261-0.356c-0.109-0.109-0.228-0.166-0.356-0.166
			c-0.133,0-0.285,0.109-0.455,0.328c-0.176,0.218-0.338,0.432-0.489,0.65c-0.152,0.218-0.252,0.327-0.294,0.327
			c-0.129-0.09-0.262-0.119-0.39-0.1c-0.134,0.024-0.228,0.043-0.294,0.066c-0.066,0.019-0.162,0.085-0.295,0.195
			c-0.128,0.109-0.237,0.185-0.322,0.228c-0.133,0.086-0.318,0.152-0.557,0.194c-0.236,0.043-0.422,0.085-0.55,0.128
			c0.65-0.214,0.626-0.456-0.067-0.712c-0.436-0.175-0.783-0.242-1.043-0.199c0.394-0.171,0.555-0.432,0.488-0.778
			c-0.062-0.347-0.247-0.65-0.551-0.912h0.322c-0.042-0.176-0.227-0.361-0.55-0.556c-0.327-0.194-0.708-0.379-1.14-0.55
			c-0.437-0.176-0.717-0.304-0.85-0.394c-0.347-0.214-1.082-0.423-2.213-0.617c-1.129-0.195-1.846-0.204-2.145-0.033
			c-0.219,0.261-0.318,0.489-0.295,0.684c0.019,0.194,0.109,0.503,0.262,0.911c0.151,0.413,0.227,0.684,0.227,0.817
			c0.043,0.261-0.075,0.541-0.359,0.845c-0.281,0.304-0.424,0.565-0.424,0.783c0,0.304,0.305,0.641,0.912,1.007
			c0.607,0.37,0.826,0.835,0.65,1.4c-0.129,0.346-0.475,0.693-1.039,1.039c-0.565,0.351-0.912,0.612-1.045,0.783
			c-0.214,0.347-0.247,0.75-0.096,1.206c0.152,0.456,0.381,0.812,0.684,1.073c0.086,0.085,0.119,0.175,0.096,0.261
			c-0.02,0.085-0.096,0.186-0.229,0.294c-0.127,0.109-0.246,0.195-0.355,0.256c-0.109,0.066-0.252,0.143-0.422,0.228L58.4,30.862
			c-0.479,0.218-0.926,0.086-1.334-0.389c-0.413-0.479-0.707-1.045-0.883-1.695c-0.304-1.083-0.65-1.737-1.039-1.951
			c-0.998-0.347-1.629-0.328-1.891,0.062c-0.218-0.561-1.105-1.125-2.667-1.691c-1.087-0.394-2.345-0.479-3.774-0.261
			c0.256-0.043,0.256-0.371,0-0.978c-0.309-0.65-0.717-0.912-1.239-0.779c0.128-0.261,0.219-0.641,0.261-1.139
			c0.043-0.499,0.066-0.793,0.066-0.883c0.128-0.56,0.39-1.059,0.779-1.496c0.042-0.042,0.194-0.228,0.456-0.555
			c0.261-0.323,0.465-0.617,0.617-0.878c0.152-0.261,0.166-0.389,0.033-0.389c1.519,0.176,2.607-0.066,3.257-0.717
			c0.218-0.214,0.465-0.584,0.75-1.106c0.279-0.522,0.508-0.888,0.684-1.106c0.389-0.261,0.692-0.38,0.91-0.361
			c0.215,0.024,0.532,0.143,0.945,0.361c0.408,0.218,0.727,0.323,0.939,0.323c0.608,0.047,0.945-0.194,1.012-0.712
			c0.066-0.522-0.1-0.954-0.488-1.306c0.521,0.048,0.588-0.323,0.193-1.106c-0.218-0.304-0.389-0.499-0.518-0.584
			c-0.521-0.176-1.11-0.066-1.761,0.323c-0.347,0.176-0.304,0.352,0.134,0.523c-0.049-0.043-0.252,0.185-0.623,0.684
			c-0.365,0.499-0.726,0.878-1.072,1.139c-0.347,0.261-0.693,0.152-1.039-0.328c-0.049-0.043-0.167-0.332-0.361-0.878
			c-0.195-0.542-0.399-0.835-0.617-0.878c-0.347,0-0.693,0.328-1.04,0.978c0.128-0.347-0.109-0.674-0.717-0.978
			c-0.608-0.304-1.13-0.475-1.562-0.522c0.821-0.518,0.65-1.106-0.522-1.757c-0.304-0.171-0.75-0.28-1.334-0.323
			c-0.589-0.042-1.011,0.043-1.272,0.256c-0.218,0.309-0.337,0.556-0.356,0.75c-0.024,0.195,0.086,0.371,0.323,0.523
			c0.242,0.152,0.47,0.271,0.684,0.356c0.218,0.09,0.47,0.176,0.75,0.261c0.28,0.09,0.465,0.152,0.556,0.194
			c0.608,0.437,0.778,0.741,0.517,0.912c-0.085,0.047-0.271,0.124-0.551,0.228c-0.285,0.109-0.531,0.208-0.75,0.294
			c-0.218,0.086-0.346,0.176-0.389,0.261c-0.133,0.176-0.133,0.48,0,0.912c0.128,0.432,0.085,0.736-0.133,0.912
			c-0.214-0.219-0.413-0.599-0.584-1.14c-0.176-0.541-0.328-0.902-0.456-1.073c0.304,0.389-0.237,0.518-1.628,0.389l-0.65-0.066
			c-0.176,0-0.522,0.043-1.04,0.133c-0.522,0.085-0.968,0.109-1.339,0.062c-0.365-0.043-0.66-0.214-0.878-0.518
			c-0.171-0.347-0.171-0.783,0-1.306c0.042-0.171,0.133-0.213,0.261-0.128c-0.175-0.133-0.413-0.337-0.717-0.617
			c-0.304-0.285-0.518-0.47-0.65-0.556c-1.999,0.65-4.035,1.543-6.119,2.668c0.261,0.048,0.522,0.024,0.783-0.061
			c0.214-0.09,0.499-0.228,0.845-0.427c0.347-0.195,0.565-0.313,0.65-0.356c1.477-0.608,2.388-0.76,2.734-0.456l0.328-0.327
			c0.603,0.698,1.04,1.239,1.301,1.628c-0.304-0.171-0.954-0.194-1.956-0.061c-0.869,0.256-1.343,0.518-1.429,0.778
			c0.304,0.523,0.408,0.912,0.323,1.173c-0.171-0.128-0.422-0.347-0.746-0.65c-0.327-0.304-0.641-0.542-0.944-0.717
			c-0.304-0.171-0.631-0.28-0.978-0.328c-0.693,0-1.172,0.024-1.434,0.066C23.675,16.953,18.576,21.771,14.712,27.933z
			 M57.095,89.974c0,0.262,0.043,0.613,0.134,1.045c8.938-1.562,16.558-5.663,22.853-12.305c-0.133-0.133-0.403-0.228-0.816-0.295
			c-0.413-0.066-0.684-0.137-0.812-0.228c-0.784-0.304-1.306-0.475-1.562-0.522c0.043-0.299-0.014-0.584-0.166-0.845
			c-0.152-0.261-0.322-0.456-0.518-0.584c-0.199-0.133-0.47-0.304-0.816-0.522c-0.347-0.218-0.584-0.37-0.717-0.455
			c-0.086-0.086-0.237-0.219-0.455-0.39c-0.219-0.176-0.371-0.294-0.457-0.36c-0.085-0.062-0.246-0.162-0.488-0.29
			c-0.237-0.133-0.422-0.176-0.551-0.133c-0.133,0.043-0.347,0.067-0.65,0.067l-0.194,0.066c-0.134,0.043-0.252,0.095-0.36,0.161
			c-0.109,0.067-0.229,0.129-0.356,0.195c-0.134,0.066-0.219,0.128-0.261,0.194c-0.043,0.066-0.043,0.119,0,0.161
			c-0.912-0.735-1.695-1.21-2.346-1.429c-0.219-0.043-0.455-0.166-0.717-0.36c-0.262-0.195-0.488-0.347-0.684-0.456
			c-0.195-0.104-0.413-0.138-0.65-0.095c-0.237,0.043-0.488,0.194-0.75,0.456c-0.214,0.218-0.347,0.541-0.389,0.973
			c-0.043,0.437-0.086,0.717-0.129,0.85c-0.304-0.218-0.304-0.598,0-1.139c0.304-0.542,0.347-0.945,0.129-1.206
			c-0.129-0.262-0.356-0.356-0.684-0.295c-0.323,0.066-0.584,0.167-0.779,0.295c-0.199,0.128-0.446,0.313-0.75,0.556
			c-0.304,0.237-0.498,0.379-0.588,0.422c-0.086,0.043-0.271,0.161-0.551,0.356c-0.285,0.194-0.471,0.36-0.557,0.488
			c-0.127,0.176-0.261,0.438-0.389,0.784c-0.128,0.346-0.237,0.583-0.328,0.712c-0.085-0.171-0.336-0.313-0.744-0.423
			c-0.414-0.104-0.623-0.228-0.623-0.356c0.091,0.433,0.176,1.192,0.262,2.279c0.086,1.087,0.194,1.908,0.328,2.473
			c0.303,1.349,0.042,2.389-0.783,3.124c-1.174,1.087-1.8,1.956-1.885,2.606c-0.176,0.954,0.085,1.519,0.777,1.69
			c0,0.309-0.175,0.751-0.521,1.339C57.204,89.162,57.053,89.628,57.095,89.974z"/>
	</g>
</g>
<g id="close" display="none">
	<g display="inline">
		<path d="M6.703,75.105C2.231,67.434,0,59.074,0,50.002c0-9.072,2.231-17.437,6.703-25.098
			c4.472-7.662,10.539-13.724,18.201-18.196C32.565,2.236,40.93,0,49.998,0c9.077,0,17.436,2.236,25.108,6.708
			c7.652,4.472,13.71,10.534,18.191,18.196C97.759,32.565,100,40.93,100,50.002c0,9.072-2.241,17.432-6.703,25.104
			c-4.481,7.652-10.539,13.72-18.191,18.191C67.434,97.759,59.074,100,49.998,100c-9.067,0-17.432-2.241-25.094-6.703
			C17.242,88.825,11.175,82.758,6.703,75.105z M25.198,64.719c0,1.168,0.409,2.164,1.234,2.99l5.858,5.858
			c0.826,0.826,1.823,1.234,3,1.234c1.12,0,2.098-0.408,2.924-1.234l11.783-11.782l11.778,11.782
			c0.835,0.826,1.804,1.234,2.943,1.234c1.158,0,2.164-0.408,2.981-1.234l5.867-5.858c0.816-0.826,1.234-1.822,1.234-2.99
			c0-1.13-0.418-2.108-1.234-2.934L61.775,50.002L73.567,38.22c0.816-0.826,1.234-1.804,1.234-2.934
			c0-1.167-0.418-2.169-1.234-2.991L67.7,26.432c-0.817-0.821-1.823-1.234-2.981-1.234c-1.14,0-2.108,0.413-2.943,1.234
			L49.998,38.22L38.215,26.432c-0.826-0.821-1.804-1.234-2.924-1.234c-1.177,0-2.174,0.413-3,1.234l-5.858,5.863
			c-0.826,0.821-1.234,1.823-1.234,2.991c0,1.13,0.409,2.108,1.234,2.934l11.783,11.782L26.432,61.785
			C25.606,62.61,25.198,63.589,25.198,64.719z"/>
	</g>
</g>
<g id="arrow" display="none">
	<g display="inline">
		<path d="M0,29.159c0-0.877,0.321-1.637,0.994-2.31l5.013-5.014c0.657-0.657,1.447-1.008,2.295-1.008
			c0.877,0,1.637,0.351,2.31,1.008l39.403,39.389l39.375-39.389c0.674-0.657,1.434-1.008,2.309-1.008
			c0.876,0,1.637,0.351,2.311,1.008l4.998,5.014c0.672,0.673,0.993,1.433,0.993,2.31c0,0.876-0.321,1.636-0.993,2.309L52.295,78.165
			c-0.643,0.658-1.432,1.007-2.281,1.007c-0.876,0-1.636-0.349-2.31-1.007L0.994,31.468C0.321,30.795,0,30.035,0,29.159z"/>
	</g>
</g>
<g id="search" display="none">
	<g display="inline">
		<path d="M3.335,58.743C1.111,53.515,0,48.037,0,42.308S1.111,31.1,3.335,25.871s5.229-9.735,9.015-13.521
			c3.786-3.786,8.293-6.791,13.521-9.015S36.577,0,42.308,0c5.729,0,11.208,1.111,16.437,3.335
			c5.229,2.224,9.735,5.229,13.523,9.015c3.784,3.786,6.789,8.293,9.012,13.521c2.225,5.229,3.337,10.707,3.337,16.436
			c0,8.815-2.484,16.807-7.452,23.978l20.612,20.613c1.482,1.48,2.225,3.284,2.225,5.408c0,2.083-0.762,3.887-2.284,5.41
			C96.192,99.238,94.39,100,92.307,100c-2.162,0-3.965-0.762-5.408-2.283L66.286,77.163c-7.173,4.968-15.165,7.451-23.979,7.451
			c-5.73,0-11.208-1.112-16.436-3.336c-5.229-2.224-9.735-5.228-13.521-9.013C8.563,68.479,5.559,63.972,3.335,58.743z
			 M23.287,23.287c-5.268,5.269-7.902,11.608-7.902,19.02s2.634,13.752,7.902,19.02c5.268,5.269,11.608,7.902,19.02,7.902
			c7.411,0,13.752-2.634,19.021-7.902c5.268-5.267,7.902-11.607,7.902-19.02s-2.635-13.752-7.902-19.02
			c-5.268-5.268-11.609-7.902-19.021-7.902C34.896,15.385,28.555,18.02,23.287,23.287z"/>
	</g>
</g>
<g id="Layer_7">
	<path d="M73.526,2.884c-10.345,0-19.268,8.277-23.62,17.113C45.568,11.161,36.677,2.884,26.38,2.884
		C11.818,2.884,0,14.844,0,29.586c0,29.661,29.228,37.717,49.568,66.587v0.944c0.109-0.167,0.224-0.325,0.334-0.49
		c0.11,0.158,0.227,0.297,0.336,0.456v-0.948C69.603,67.445,100,58.304,100,29.601C100,14.848,88.14,2.884,73.526,2.884z"/>
	<g>
	</g>
	<g>
	</g>
	<g>
	</g>
	<g>
	</g>
	<g>
	</g>
	<g>
	</g>
</g>
</svg>
