<svg viewBox="0 0 100 100" xmlns="http://www.w3.org/2000/svg">
  <path d="M78.571,33.333H73.81V23.81C73.81,10.667,63.143,0,50,0S26.19,10.667,26.19,23.81v9.524h-4.762
  	c-5.238,0-9.524,4.286-9.524,9.524v47.619c0,5.238,4.286,9.524,9.524,9.524h57.143c5.238,0,9.524-4.286,9.524-9.524V42.857
  	C88.095,37.619,83.81,33.333,78.571,33.333z M50,76.19c-5.238,0-9.524-4.286-9.524-9.524s4.286-9.524,9.524-9.524
  	s9.524,4.286,9.524,9.524S55.238,76.19,50,76.19z M64.762,33.333H35.238V23.81c0-8.143,6.619-14.762,14.762-14.762
  	s14.762,6.619,14.762,14.762V33.333z"/>
</svg>
