<svg version="1.0" xmlns="http://www.w3.org/2000/svg" xmlns:xlink="http://www.w3.org/1999/xlink"
	 viewBox="0 0 100 100">
   <path
     id="path"
     d="M70.052,41.54c-0.026-0.09-0.043-0.19-0.078-0.286 M40.651,70.58L21.529,89.463
     c2.818,1.753,5.845,3.256,9.125,4.473c6.071,2.258,12.496,3.393,19.256,3.393c6.87,0,13.321-1.135,19.357-3.393
     c6.019-2.266,11.323-5.457,15.894-9.567c4.593-4.103,8.213-9.1,10.861-15C98.674,63.486,100,56.902,100,49.633
     c0-7.26-1.326-13.804-3.978-19.631c-1.465-3.235-3.262-6.165-5.325-8.85L70.052,41.54c0.903,2.644,1.378,5.343,1.378,8.093
     c0,2.863-0.458,5.661-1.348,8.41c-0.916,2.733-2.268,5.207-4.087,7.397c-1.81,2.203-4.035,3.967-6.686,5.274
     c-2.639,1.314-5.714,1.959-9.221,1.959c-3.49,0-6.569-0.645-9.225-1.959C40.79,70.675,40.729,70.616,40.651,70.58 M59.2,28.957
     l19.06-18.819c-2.808-1.682-5.792-3.113-8.993-4.257c-6.037-2.129-12.488-3.21-19.357-3.21c-6.761,0-13.185,1.08-19.256,3.21
     c-6.098,2.153-11.397,5.245-15.916,9.295c-4.523,4.042-8.108,8.991-10.769,14.826C1.321,35.829,0,42.373,0,49.633
     c0,7.269,1.321,13.853,3.969,19.736c1.465,3.258,3.25,6.212,5.277,8.917l20.797-20.531c-0.846-2.657-1.286-5.358-1.286-8.122
     c0-2.846,0.449-5.644,1.352-8.379c0.907-2.753,2.22-5.15,3.969-7.231c1.745-2.086,3.948-3.788,6.608-5.104
     c2.656-1.305,5.718-1.957,9.225-1.957c3.502,0,6.573,0.652,9.221,1.957C59.148,28.93,59.17,28.947,59.2,28.957"
   />
</svg>
