<svg version="1.0" xmlns="http://www.w3.org/2000/svg" xmlns:xlink="http://www.w3.org/1999/xlink" x="0px" y="0px"
	 viewBox="0 0 100 100" enable-background="new 0 0 100 100" xml:space="preserve">
	 <g id="XMLID_2_">
	 	<path id="XMLID_3_" d="M33.7379,11.4078C41.343,3.8026,50.4854,0,61.165,0s19.822,3.8026,27.4272,11.4078S100,28.1553,100,38.835
	 		s-3.8026,19.822-11.4078,27.4272S71.8447,77.6699,61.165,77.6699c-9.2233,0-17.3948-2.9126-24.5146-8.7379L5.8252,100L0,94.1748
	 		l31.068-30.8252c-5.8252-7.1197-8.7379-15.2913-8.7379-24.5146C22.3301,28.1553,26.1327,19.0129,33.7379,11.4078z M83.1311,16.8689
	 		c-6.068-6.068-13.39-9.1019-21.966-9.1019s-15.8981,3.034-21.966,9.1019s-9.1019,13.39-9.1019,21.966s3.034,15.8981,9.1019,21.966
	 		s13.39,9.1019,21.966,9.1019s15.8981-3.034,21.966-9.1019c6.068-6.068,9.1019-13.39,9.1019-21.966S89.199,22.9369,83.1311,16.8689z
	 		"/>
	 </g>
</svg>
